<?xml version="1.0" encoding="utf-8"?>
<!-- Generator: Adobe Illustrator 22.1.0, SVG Export Plug-In . SVG Version: 6.00 Build 0)  -->
<svg version="1.1" xmlns="http://www.w3.org/2000/svg" xmlns:xlink="http://www.w3.org/1999/xlink" x="0px" y="0px"
	 viewBox="0 0 800 800" style="enable-background:new 0 0 800 800;" xml:space="preserve">
<style type="text/css">
	.st0{fill:none;}
	.st1{fill:#FFFFFF;}
	.st2{fill:#F69161;}
	.st3{fill:#F5B292;}
	.st4{fill:#A5B6DD;}
	.st5{fill:#C4CBDC;}
	.st6{fill:#F4C6C7;}
	.st7{fill:#F9DCD1;}
	.st8{fill:#51AFD7;}
	.st9{fill:#F59596;}
	.st10{fill:#95CBC9;}
	.st11{fill:#FAB79F;}
	.st12{fill:#7DBCD6;}
	.st13{fill:#B2CAC9;}
	.st14{fill:#8E7E92;}
	.st15{fill:url(#Nueva_muestra_de_motivo_7);}
</style>
<pattern  width="305.7" height="305.7" patternUnits="userSpaceOnUse" id="Nueva_muestra_de_motivo_7" viewBox="0 -305.7 305.7 305.7" style="overflow:visible;">
	<g>
		<rect y="-305.7" class="st0" width="305.7" height="305.7"/>
		<path class="st1" d="M290.3-259.4c4.4,0.8,9.9,1.6,15.5,1.8v73.6l-16-8.7c0.4-2.1,0-4.4-1.3-6.1c-2.1-2.7-6-3.4-9.3-2.5
			c-1.1,0.3-2.2,0.8-3.2,1.4c-4.9-5.5-10.2-10.7-16.6-13.9c0,0,0,0,0,0c0,0-0.1,0-0.1,0c-0.2-0.1-0.3-0.2-0.5-0.2
			c-0.4-0.2-0.8-0.3-1.2-0.5c-0.2-0.1-0.3-0.1-0.5-0.2c-0.5-0.2-1-0.4-1.5-0.5c-0.2-0.1-0.3-0.1-0.5-0.1c-0.5-0.1-1-0.3-1.4-0.4
			c-0.1,0-0.2-0.1-0.3-0.1c-0.6-0.1-1.2-0.2-1.7-0.4c-0.1,0-0.3,0-0.4-0.1c-0.6-0.1-1.2-0.2-1.9-0.2c-8-0.7-15.1,1.8-20.7,6.2
			l-0.6-3.6c-0.1-0.6-0.6-0.9-1.2-0.8c-0.6,0.1-0.9,0.6-0.8,1.2l0.9,4.8c-2.4,2.2-4.4,4.7-6.1,7.5l-2.4-1.1c-0.5-0.2-1.1,0-1.4,0.5
			c-0.2,0.5,0,1.1,0.5,1.4l2.2,1c-2.1,3.9-3.4,8.3-3.9,12.8l-6.4,1.9c-0.5,0.2-0.9,0.7-0.7,1.3c0.2,0.5,0.7,0.9,1.3,0.7l5.6-1.6
			c-0.1,1.5-0.1,3.1,0,4.6c0.3,3.7,1.1,7.1,2.5,10l-1.6,7.5c-0.1,0.6,0.2,1.1,0.8,1.2c0.6,0.1,1.1-0.2,1.2-0.8l1.1-5.3
			c3.7,5.7,9.7,9.6,17.2,11.7c0.5,0.1,1.1,0.3,1.6,0.4c0.1,0,0.2,0,0.3,0.1c0.4,0.1,0.9,0.2,1.3,0.3c0.1,0,0.2,0,0.4,0.1
			c0.4,0.1,0.9,0.1,1.3,0.2c0.1,0,0.2,0,0.4,0c0.4,0.1,0.9,0.1,1.3,0.2c0,0,0,0,0.1,0c0,0,0,0,0,0c6.5,0.6,13.1-0.4,18.3-3.7
			c2.1,5,7.9,8.5,13.3,7.4c2.4-0.5,4.7-1.8,6.1-3.9c0.3-0.5,0.6-1.1,0.8-1.6l23.9-1v66.2c-0.8,0.9-1.7,1.8-2.6,2.6l-5.8-6.4
			c-0.4-0.4-1-0.4-1.4-0.1c-0.4,0.4-0.4,1-0.1,1.4l5.7,6.2c-0.5,0.3-1,0.6-1.5,0.8c-4.2,1.9-8.9,2.1-13.4,3.4
			c-2.3,0.6-4.5,1.5-6.4,2.8l-3-2.7c-0.4-0.4-1.1-0.3-1.4,0.1c-0.4,0.4-0.3,1.1,0.1,1.4l2.7,2.4c-0.6,0.5-1.2,1.1-1.7,1.7
			c-2.5,2.9-3.7,7.1-2.5,10.7c1.1,3.2,3.9,5.6,6.8,7.4c-6.8-0.7-13.9,2.7-17.6,8.4c-1.6,2.4-2.6,5.4-1.8,8.2c1.3,4.5,6.5,6.5,11,7.8
			c-4.1,2.1-7.3,5.9-8.8,10.3c0,0,0,0,0,0c0,0.1-0.1,0.2-0.1,0.3c-0.1,0.2-0.1,0.4-0.2,0.5c0,0.2-0.1,0.3-0.1,0.5
			c0,0.2-0.1,0.3-0.1,0.5c0,0.2-0.1,0.4-0.1,0.6c0,0.1-0.1,0.3-0.1,0.4c-0.1,0.4-0.1,0.7-0.1,1.1c-0.4,4.9,1.4,9.9,4.7,13.5
			c-1,2.1-1.7,4.6-1.5,6.9H208c3.2-5,6-9.6,8.5-14c0.2,0.1,0.4,0.1,0.7,0.2c0.2,0,0.4,0.1,0.6,0.1c0.1,0,0.1,0,0.2,0
			c0.1,0,0.3,0,0.4,0c0.1,0,0.1,0,0.2-0.1c0.1,0,0.2-0.1,0.3-0.1c0.1,0,0.1-0.1,0.2-0.1c0.1,0,0.2-0.1,0.3-0.2
			c0.1,0,0.1-0.1,0.2-0.2c0.1-0.1,0.2-0.1,0.3-0.2c0.1-0.1,0.1-0.1,0.2-0.2c0.1-0.1,0.2-0.2,0.3-0.2c0.1-0.1,0.1-0.1,0.2-0.2
			c0.1-0.1,0.2-0.2,0.2-0.3c0.1-0.1,0.1-0.2,0.2-0.2c0.1-0.1,0.1-0.2,0.2-0.3c0.1-0.1,0.1-0.2,0.2-0.3c0.1-0.1,0.1-0.2,0.2-0.3
			c0.1-0.1,0.1-0.2,0.2-0.3c0.1-0.1,0.1-0.2,0.2-0.3c0-0.1,0.1-0.2,0.1-0.3c0.1-0.1,0.1-0.2,0.2-0.4c0-0.1,0.1-0.2,0.1-0.3
			c0.1-0.1,0.1-0.3,0.2-0.4c0-0.1,0.1-0.2,0.1-0.2c0.1-0.1,0.1-0.3,0.2-0.4c0-0.1,0.1-0.1,0.1-0.2c0.2-0.4,0.3-0.8,0.5-1.1
			c0.1-0.2,0.1-0.3,0.2-0.5c18.1-35.9,14.7-53.8,9.4-62.2c0,0,0,0,0,0c0,0,0-0.1-0.1-0.1c-0.2-0.3-0.4-0.6-0.6-0.8c0,0,0,0,0,0
			c-0.2-0.3-0.4-0.5-0.5-0.7c0-0.1-0.1-0.1-0.1-0.2c-0.2-0.2-0.4-0.5-0.6-0.7c0,0,0,0-0.1-0.1c-0.2-0.2-0.3-0.4-0.5-0.6
			c0,0-0.1-0.1-0.1-0.1c-0.2-0.2-0.4-0.4-0.5-0.6c0,0-0.1-0.1-0.1-0.1c-0.2-0.2-0.3-0.3-0.5-0.4c0,0-0.1-0.1-0.1-0.1
			c-0.2-0.2-0.3-0.3-0.5-0.4c0,0-0.1,0-0.1-0.1c-0.1-0.1-0.3-0.2-0.4-0.3c0,0-0.1,0-0.1-0.1c-0.2-0.1-0.3-0.2-0.4-0.3
			c0,0-0.1,0-0.1-0.1c-0.1-0.1-0.2-0.2-0.4-0.2c0,0,0,0-0.1,0c-0.1-0.1-0.2-0.2-0.4-0.2c0,0-0.1,0-0.1,0c-0.1-0.1-0.2-0.1-0.3-0.2
			c0,0,0,0,0,0c-0.1-0.1-0.2-0.1-0.3-0.1c0,0,0,0-0.1,0c-0.1,0-0.1-0.1-0.2-0.1c0,0,0,0,0,0c-0.1,0-0.1,0-0.1-0.1c0,0,0,0,0,0
			c0,0,0,0,0,0s0,0,0,0c0,0,0,0,0,0c0,0,0,0,0,0c0,0,0,0,0,0c0,0,0,0,0,0c0,0,0,0-0.1,0c0,0,0,0-0.1,0c0,0-0.1,0-0.1,0
			c0,0,0,0-0.1,0c0,0-0.1,0-0.1-0.1c0,0-0.1,0-0.1,0c0,0-0.1,0-0.1-0.1c0,0-0.1,0-0.1-0.1c0,0-0.1,0-0.1-0.1c0,0-0.1,0-0.1-0.1
			c0,0-0.1,0-0.1-0.1c0,0-0.1,0-0.1-0.1c-0.1,0-0.1-0.1-0.2-0.1c0,0-0.1,0-0.1-0.1c-0.1,0-0.1-0.1-0.2-0.1c0,0-0.1,0-0.1-0.1
			c-0.1,0-0.2-0.1-0.4-0.1c0,0-0.1,0-0.1,0c-0.1,0-0.2-0.1-0.3-0.1c-0.1,0-0.1,0-0.2-0.1c-0.1,0-0.2-0.1-0.2-0.1
			c-0.1,0-0.1,0-0.2-0.1c-0.1,0-0.2,0-0.2-0.1c-0.1,0-0.1,0-0.2-0.1c-0.1,0-0.2,0-0.3-0.1c-0.1,0-0.2,0-0.2-0.1
			c-0.1,0-0.2,0-0.3-0.1c-0.1,0-0.2,0-0.2-0.1c-0.1,0-0.2,0-0.3-0.1c-0.1,0-0.2,0-0.3-0.1c-0.1,0-0.2,0-0.3-0.1c-0.1,0-0.2,0-0.3,0
			c-0.1,0-0.2,0-0.3,0c-0.1,0-0.2,0-0.3,0c-0.1,0-0.2,0-0.3,0c-0.1,0-0.2,0-0.3,0c-0.1,0-0.2,0-0.3,0c-0.1,0-0.2,0-0.3,0
			c-0.1,0-0.3,0-0.4,0c-0.1,0-0.2,0-0.3,0c-0.2,0-0.4,0-0.7,0c-0.1,0-0.2,0-0.3,0c-0.1,0-0.3,0-0.4,0c-0.1,0-0.2,0-0.3,0
			c-0.1,0-0.3,0-0.4,0c-0.1,0-0.2,0-0.4,0c-0.1,0-0.3,0-0.4,0c-0.1,0-0.3,0-0.4,0c-0.1,0-0.3,0-0.4,0c-0.1,0-0.3,0-0.4,0.1
			c-0.1,0-0.3,0-0.4,0.1c-0.1,0-0.3,0-0.4,0.1c-0.1,0-0.3,0.1-0.4,0.1c-0.1,0-0.3,0.1-0.4,0.1c-0.1,0-0.3,0.1-0.4,0.1
			c-0.1,0-0.3,0.1-0.4,0.1c-0.2,0-0.3,0.1-0.5,0.1c-0.1,0-0.3,0.1-0.4,0.1c-0.2,0-0.3,0.1-0.5,0.1c-0.1,0-0.3,0.1-0.4,0.1
			c-0.2,0.1-0.3,0.1-0.5,0.2c-0.1,0-0.3,0.1-0.4,0.1c-0.2,0.1-0.4,0.1-0.6,0.2c-0.2,0.1-0.4,0.1-0.6,0.2c-0.2,0.1-0.5,0.2-0.7,0.3
			c-0.1,0.1-0.3,0.1-0.4,0.2c-0.2,0.1-0.4,0.2-0.6,0.3c-0.2,0.1-0.3,0.1-0.5,0.2c-0.2,0.1-0.4,0.2-0.6,0.3c-0.2,0.1-0.3,0.2-0.5,0.3
			c-0.2,0.1-0.4,0.2-0.5,0.3c-0.2,0.1-0.3,0.2-0.5,0.3c-0.2,0.1-0.4,0.2-0.6,0.3c-0.2,0.1-0.4,0.2-0.5,0.3c-0.2,0.1-0.4,0.2-0.6,0.3
			c-0.2,0.1-0.4,0.2-0.5,0.3c-0.2,0.1-0.4,0.2-0.6,0.4c-0.2,0.1-0.4,0.2-0.5,0.4c-0.2,0.1-0.4,0.3-0.6,0.4c-0.2,0.1-0.4,0.3-0.6,0.4
			c-0.2,0.1-0.4,0.3-0.6,0.4c-0.2,0.1-0.4,0.3-0.6,0.4c-0.2,0.2-0.4,0.3-0.6,0.5c-0.2,0.1-0.4,0.3-0.6,0.4c-0.2,0.2-0.4,0.4-0.7,0.5
			c-0.2,0.1-0.3,0.3-0.5,0.4c-0.3,0.3-0.7,0.5-1,0.8c-0.2,0.2-0.4,0.4-0.6,0.5c-0.3,0.2-0.6,0.5-0.8,0.7c-0.2,0.2-0.4,0.3-0.5,0.5
			c-0.2,0.2-0.5,0.4-0.7,0.7c-0.2,0.2-0.4,0.4-0.6,0.6c-0.2,0.2-0.5,0.4-0.7,0.7c-0.2,0.2-0.4,0.4-0.6,0.6c-0.2,0.2-0.5,0.5-0.7,0.7
			c-0.2,0.2-0.4,0.4-0.6,0.6c-0.2,0.2-0.5,0.5-0.7,0.7c-0.2,0.2-0.4,0.5-0.6,0.7c-0.2,0.3-0.5,0.5-0.7,0.8c-0.2,0.2-0.4,0.5-0.6,0.7
			c-0.2,0.3-0.5,0.5-0.7,0.8c-0.2,0.2-0.4,0.5-0.6,0.8c-0.2,0.3-0.5,0.6-0.7,0.9c-0.2,0.3-0.4,0.5-0.6,0.8c-0.2,0.3-0.5,0.6-0.7,0.9
			c-0.2,0.3-0.4,0.5-0.6,0.8c-0.3,0.3-0.5,0.7-0.8,1c-0.2,0.3-0.4,0.5-0.6,0.8c-0.3,0.4-0.6,0.8-0.9,1.2c-0.2,0.2-0.3,0.5-0.5,0.7
			c-0.5,0.6-0.9,1.3-1.4,1.9c0,0,0,0,0,0c-2.5,3.5-5,7.5-7.7,11.9c-1.1,1.9-2,3.7-2.4,5.5c0,0,0,0,0,0c0,0,0,0,0,0
			c0,0.1,0,0.1,0,0.2c0,0.3-0.1,0.5-0.1,0.8c0,0.1,0,0.2,0,0.3c0,0.2,0,0.5,0,0.7c0,0.1,0,0.2,0,0.3c0,0.3,0.1,0.7,0.2,1
			c0.1,0.3,0.2,0.6,0.4,0.9c-3.7,6.8-7.4,14.7-11.3,23.6c-1.3,3-0.1,6.4,2.7,8l12.7,7c0,0-0.1,0.1-0.3,0.3c0,0-0.1,0.1-0.1,0.1
			c-0.1,0.1-0.2,0.2-0.3,0.3c0,0-0.1,0.1-0.1,0.2c-0.1,0.1-0.2,0.2-0.3,0.4c-0.1,0.1-0.2,0.2-0.3,0.3c-0.1,0.1-0.2,0.2-0.3,0.4
			c-0.1,0.1-0.2,0.2-0.3,0.4c-0.1,0.1-0.2,0.3-0.4,0.4c0,0.1-0.1,0.1-0.2,0.2H90.7l-6.3-17.1c-0.7-1.9-2.8-2.9-4.7-2.2l-1.8,0.6
			c-0.2,0.1-0.4,0.2-0.6,0.3c-0.1,0-0.1,0.1-0.2,0.1c-0.1,0.1-0.2,0.2-0.3,0.2c-0.1,0.1-0.1,0.1-0.2,0.2c-0.1,0.1-0.2,0.2-0.2,0.3
			c-0.1,0.1-0.1,0.2-0.2,0.2c0,0,0,0,0,0.1c0,0,0,0,0,0c-0.6,0.9-0.8,2.1-0.4,3.2l5.2,14h-47c0-1.6-0.7-9.5-1-9.4
			C32.5-9.2,32-9,31.6-8.8c1.4-1.5,2.7-3.2,3.5-5.1c0.2-0.4,0.4-0.9,0.5-1.3c0-0.1,0.1-0.2,0.1-0.3c0.1-0.5,0.2-0.9,0.3-1.4
			c0,0,0,0,0-0.1c0.1-0.4,0.1-0.9,0.2-1.3c0-0.1,0-0.2,0-0.4c0-0.5,0-0.9,0-1.4c0,0,0-0.1,0-0.1c0-0.4-0.1-0.8-0.1-1.3
			c0-0.1,0-0.2-0.1-0.4c0-0.1,0-0.2,0-0.3c0,0,0,0,0,0c-1-5.6-5.1-10.8-10.7-12.3c4.5-2.6,9.3-5.6,11-10.5c1.2-3.5,0.5-7.6-1.8-10.5
			c-2.3-2.9-6.1-4.5-9.8-4.1c2.3-4.1,4.1-8.8,3.1-13.4c-0.2-0.9-0.5-1.7-0.8-2.5l3.7-5.2c0.3-0.5,0.2-1.1-0.2-1.4
			c-0.5-0.3-1.1-0.2-1.4,0.2L26-77.4c-3.3-5-9.6-8.2-14-12.6c-3.9-3.8-6.7-8.8-7.8-14.2c0.6,4.8-1.1,9.7-4.1,13.4v-66.2l29.3-1.3
			c4.7-0.2,6.2-6.5,2-8.7L0-184v-73.6c7.8,0.3,15.9-0.5,21.8-4l0.9-33.1c2.4-0.5,4.6-1.3,6.5-2.4c0.3-0.2,0.6-0.4,0.9-0.6
			c0.1-0.1,0.1-0.1,0.2-0.2c0.3-0.2,0.5-0.5,0.8-0.8c0,0,0-0.1,0.1-0.1c0.2-0.2,0.4-0.5,0.6-0.8c0.1-0.1,0.1-0.2,0.2-0.3
			c0.2-0.3,0.3-0.6,0.5-0.9c0-0.1,0.1-0.2,0.1-0.3c0.1-0.2,0.2-0.5,0.3-0.7c0.1-0.1,0.1-0.3,0.2-0.4c0-0.1,0-0.1,0.1-0.1
			c0,0,0,0,0,0c0.4-1.1,0.6-2.2,0.7-3.3c0,0,0-0.1,0-0.3h47l6.9,18.8c-3.1,1.3-6.2,2.7-9.5,3.5c0,0,0,0,0,0
			c-0.2,0.3-0.5,0.6-0.7,0.9c-0.1,0.1-0.2,0.2-0.2,0.4c-0.1,0.2-0.3,0.4-0.4,0.6c-0.1,0.2-0.2,0.3-0.3,0.5c-0.1,0.2-0.2,0.3-0.2,0.5
			c-0.1,0.2-0.2,0.4-0.2,0.6c-0.1,0.2-0.1,0.3-0.2,0.5c-0.1,0.2-0.1,0.5-0.2,0.7c0,0.1-0.1,0.3-0.1,0.4c-0.1,0.2-0.1,0.5-0.2,0.8
			c0,0.1-0.1,0.3-0.1,0.4c0,0.3-0.1,0.5-0.1,0.8c0,0.1,0,0.3,0,0.4c0,0.3,0,0.5-0.1,0.8c0,0.1,0,0.2,0,0.3c0,0,0,0,0,0
			c-0.1,3.3,0.7,6.8,2.1,9.6c1.5,3.1,3.9,5.7,6.6,7.9l-0.2,0.3c-2.6,2.7-1.7,7.1-0.7,10.6c0.1,0.2,0.1,0.4,0.2,0.6c0,0,0,0,0,0
			c1.1,3.6,2.3,7.4,4.9,10.1c1.3,1.4,2.9,2.5,4.7,3.3c-0.3,0.6-0.7,1.2-0.9,1.8c-0.1,0.2-0.2,0.4-0.3,0.7c-0.2,0.4-0.3,0.8-0.5,1.3
			c-0.1,0.3-0.2,0.6-0.2,0.8c-0.1,0.4-0.2,0.8-0.3,1.1c-0.1,0.3-0.1,0.6-0.2,0.9c0,0.3-0.1,0.6-0.2,0.9c0,0,0,0,0,0
			c-0.4,2.9-0.1,6,0.9,8.8c1.4,4,4.3,7.5,7.9,9.8c1.1,2.7,2.7,6.5,3.6,8.5c0.1,0.1,0.1,0.3,0.2,0.4c0,0,0,0,0,0
			c1,2.2,2.1,4.3,3.8,6.1c1.7,1.9,4.1,3.3,6.6,3.3c1.5,0,2.9-0.4,4.3-0.8c6.6-2,13.3-3.9,19.9-5.9c2.2-2.4,3.8-5.8,4.4-9.2
			c0,0,0,0,0,0c0,0,0,0,0,0c0.1-0.4,0.1-0.8,0.2-1.2c0-0.1,0-0.1,0-0.1c0-0.3,0-0.6,0.1-1c0-0.1,0-0.2,0-0.3c0-0.3,0-0.5,0-0.8
			c0-0.1,0-0.2,0-0.3c0-0.4-0.1-0.7-0.1-1.1c-0.7-3.9-2.9-7.5-6-9.9c0.7-3-0.1-6.3-1.3-9.1c-2.1-4.9-5.5-9.3-9.8-12.5
			c-0.1-0.1-0.2-0.2-0.3-0.2l0.2-0.2c1.5-4.2,1.5-8.9,0.4-13.2c0,0,0,0,0,0c0-0.1-0.1-0.3-0.1-0.4c-0.1-0.5-0.2-0.9-0.4-1.4
			c-0.1-0.2-0.1-0.4-0.2-0.6c-0.1-0.4-0.3-0.8-0.5-1.2c-0.1-0.2-0.2-0.4-0.3-0.6c-0.2-0.4-0.4-0.8-0.5-1.2c-0.1-0.2-0.2-0.4-0.3-0.6
			c-0.2-0.4-0.4-0.7-0.6-1.1c-0.1-0.2-0.3-0.4-0.4-0.6c-0.2-0.3-0.5-0.7-0.7-1c-0.1-0.2-0.3-0.4-0.4-0.6c-0.3-0.3-0.5-0.6-0.8-0.9
			c-0.2-0.2-0.3-0.4-0.5-0.5c-0.3-0.3-0.6-0.6-0.9-0.9c-0.1-0.1-0.3-0.3-0.4-0.4c-0.5-0.4-1-0.9-1.5-1.2l0.2-0.2
			c0-3.1-0.2-6.2-0.6-9.3c-0.4-3.3-1.1-6.8-3.2-9.4c-3.7-4.7-10.7-5.4-16.6-4l-5.8-15.7h77.7c-0.1,0.1-0.1,0.2-0.2,0.3
			c-0.1,0.2-0.2,0.3-0.4,0.5c-0.1,0.2-0.3,0.3-0.4,0.5c-0.1,0.2-0.3,0.3-0.4,0.5c-0.1,0.2-0.3,0.4-0.4,0.5c-0.2,0.2-0.3,0.4-0.5,0.6
			c-0.2,0.2-0.3,0.4-0.5,0.6c-0.2,0.2-0.3,0.4-0.5,0.6c-0.2,0.2-0.3,0.4-0.5,0.6c-0.2,0.2-0.3,0.4-0.5,0.6c-0.2,0.2-0.3,0.4-0.5,0.7
			c-0.2,0.2-0.3,0.4-0.5,0.7c-0.2,0.2-0.3,0.5-0.5,0.7c-0.2,0.2-0.3,0.5-0.5,0.7c-0.2,0.2-0.3,0.5-0.5,0.7c-0.2,0.2-0.3,0.5-0.5,0.7
			c-0.2,0.2-0.3,0.5-0.5,0.8c-0.2,0.2-0.3,0.5-0.5,0.7c-0.2,0.3-0.3,0.5-0.5,0.8c-0.2,0.3-0.3,0.5-0.5,0.8c-0.2,0.3-0.3,0.5-0.5,0.8
			c-0.2,0.3-0.3,0.5-0.5,0.8c-0.1,0.3-0.3,0.5-0.4,0.8c-0.1,0.3-0.3,0.5-0.4,0.8c-0.1,0.3-0.3,0.5-0.4,0.8c-0.1,0.3-0.3,0.5-0.4,0.8
			c-0.1,0.3-0.2,0.5-0.4,0.8c-0.1,0.3-0.2,0.5-0.4,0.8c-0.1,0.3-0.2,0.5-0.3,0.8c-0.1,0.3-0.2,0.5-0.3,0.8c-0.1,0.3-0.2,0.5-0.3,0.8
			c-0.1,0.3-0.2,0.5-0.3,0.8c-0.1,0.3-0.2,0.5-0.2,0.8c-0.1,0.2-0.1,0.5-0.2,0.7c-0.1,0.2-0.1,0.5-0.2,0.7c0,0.2-0.1,0.5-0.1,0.7
			c0,0.2-0.1,0.5-0.1,0.7c0,0.2-0.1,0.5-0.1,0.7c0,0.2,0,0.5,0,0.7c0,0.2,0,0.4,0,0.7c0,0.2,0,0.4,0.1,0.7c0,0.2,0.1,0.4,0.1,0.6
			c0,0.2,0.1,0.4,0.1,0.6c0.1,0.2,0.1,0.4,0.2,0.6c0.1,0.2,0.1,0.4,0.2,0.6c0.1,0.2,0.2,0.4,0.3,0.5c0.1,0.2,0.2,0.4,0.3,0.5
			c0.1,0.2,0.2,0.3,0.4,0.5c0.1,0.2,0.3,0.3,0.4,0.5c0.2,0.2,0.3,0.3,0.5,0.4c0.2,0.1,0.4,0.3,0.5,0.4c0.1,0.1,0.2,0.2,0.3,0.2
			c0,0,0,0,0,0c0.2,0.1,0.4,0.3,0.6,0.4c13.9,7.6,23.5-31.1,23.5-31.1l13.1,7.2c2.8,1.6,6.4,0.7,8.2-2c1.9-2.8,3.6-5.4,5.3-8.1h58.3
			c0.1,2,0.7,3.9,2,5.5c2.6,3.2,6.7,4.6,10.9,5.4c0,0.4,0.3,25.6,1.6,33.3c0,0,0,0,0.1,0c0,0,0,0,0,0c0,0,0.1,0,0.2,0
			c0,0,0.1,0,0.1,0c0.1,0,0.2,0.1,0.3,0.1c0.1,0,0.1,0,0.2,0.1c0.1,0,0.2,0.1,0.3,0.1c0.1,0,0.2,0,0.2,0.1c0.2,0,0.4,0.1,0.6,0.1
			c0.1,0,0.2,0.1,0.3,0.1c0.1,0,0.3,0.1,0.4,0.1c0.1,0,0.3,0.1,0.4,0.1c0.2,0,0.3,0.1,0.5,0.1c0.2,0.1,0.4,0.1,0.7,0.2
			c0.2,0,0.4,0.1,0.6,0.1c0.2,0,0.3,0.1,0.5,0.1c0.2,0,0.4,0.1,0.6,0.1c0.2,0,0.3,0.1,0.5,0.1c0.3,0.1,0.7,0.1,1,0.2
			c0.2,0,0.3,0.1,0.5,0.1c0.3,0.1,0.5,0.1,0.8,0.2C289.8-259.5,290-259.5,290.3-259.4C290.2-259.4,290.2-259.4,290.3-259.4
			C290.3-259.4,290.3-259.4,290.3-259.4z M135.8-279.2l-4.3-13.9c-0.2-0.6-0.8-0.9-1.3-0.7c-0.6,0.2-0.9,0.8-0.7,1.3l4.3,13.9
			c0.1,0.5,0.6,0.8,1,0.8c0.1,0,0.2,0,0.3,0C135.6-278.1,135.9-278.7,135.8-279.2z M13.4-231.8l5.1,7.6c0.2,0.3,0.5,0.5,0.9,0.5
			c0.2,0,0.4-0.1,0.6-0.2c0.5-0.3,0.6-1,0.3-1.5l-5.1-7.6c-0.3-0.5-1-0.6-1.5-0.3C13.3-233,13.1-232.3,13.4-231.8z M8.7-200.7
			l14.9-0.6c0.6,0,1.1-0.5,1-1.1c0-0.6-0.5-1.1-1.1-1l-14.9,0.6c-0.6,0-1.1,0.5-1,1.1C7.6-201.2,8.1-200.7,8.7-200.7
			C8.7-200.7,8.7-200.7,8.7-200.7z M28-190.5c-0.5-0.4-1.1-0.3-1.5,0.2l-4.6,5.9c-0.4,0.5-0.3,1.1,0.2,1.5c0.2,0.2,0.4,0.2,0.7,0.2
			c0.3,0,0.6-0.1,0.9-0.4l4.6-5.9C28.5-189.4,28.4-190.1,28-190.5z M20-106.9l-10.8-5.9c-0.5-0.3-1.2-0.1-1.5,0.4
			c-0.3,0.5-0.1,1.2,0.4,1.5l10.8,5.9c0.2,0.1,0.3,0.1,0.5,0.1c0.4,0,0.8-0.2,0.9-0.6C20.7-106,20.5-106.7,20-106.9z M23.6-118.3
			l-6.5-12.1c-0.3-0.5-0.9-0.7-1.5-0.4c-0.5,0.3-0.7,0.9-0.4,1.5l6.5,12.1c0.2,0.4,0.6,0.6,1,0.6c0.2,0,0.3,0,0.5-0.1
			C23.7-117.1,23.9-117.8,23.6-118.3z M296.1-122.8l-11.9-7.9c-0.5-0.3-1.2-0.2-1.5,0.3c-0.3,0.5-0.2,1.2,0.3,1.5l11.9,7.9
			c0.2,0.1,0.4,0.2,0.6,0.2c0.3,0,0.7-0.2,0.9-0.5C296.7-121.8,296.6-122.5,296.1-122.8z M282.6-136.1c0.2,0.4,0.6,0.5,0.9,0.5
			c0.2,0,0.4,0,0.5-0.1l6-3.4c0.5-0.3,0.7-1,0.4-1.5c-0.3-0.5-1-0.7-1.5-0.4l-6,3.4C282.5-137.3,282.3-136.6,282.6-136.1z
			 M274.4-117.4l4,11.8c0.2,0.5,0.6,0.7,1,0.7c0.1,0,0.2,0,0.3-0.1c0.6-0.2,0.9-0.8,0.7-1.4l-4-11.8c-0.2-0.6-0.8-0.9-1.4-0.7
			C274.5-118.6,274.2-118,274.4-117.4z M224.1-115.2c-0.6-0.1-1.2,0.2-1.3,0.8l-2.3,9.9c-0.1,0.6,0.2,1.2,0.8,1.3c0.1,0,0.2,0,0.2,0
			c0.5,0,0.9-0.3,1-0.8l2.3-9.9C225.1-114.4,224.7-115,224.1-115.2z M245.6-8.8c0-0.6-0.6-1-1.1-1l-10.9,0.6c-0.6,0-1.1,0.5-1,1.1
			c0,0.6,0.5,1,1.1,1c0,0,0,0,0.1,0l10.9-0.6C245.2-7.7,245.7-8.2,245.6-8.8z M238.6-17.2c0.1,0,0.2,0,0.3,0c0.5,0,0.9-0.3,1-0.8
			l2.4-8.1c0.2-0.6-0.2-1.2-0.7-1.3c-0.6-0.2-1.2,0.2-1.3,0.7l-2.4,8.1C237.7-18,238-17.4,238.6-17.2z M246.4-66.5L241-78
			c-0.2-0.5-0.9-0.8-1.4-0.5c-0.5,0.2-0.8,0.9-0.5,1.4l5.3,11.6c0.2,0.4,0.6,0.6,1,0.6c0.2,0,0.3,0,0.4-0.1
			C246.4-65.3,246.6-65.9,246.4-66.5z M252.2-32.6c0-0.6-0.5-1.1-1.1-1.1c-0.6,0-1.1,0.5-1.1,1.1v9.9c0,0.6,0.5,1.1,1.1,1.1
			c0.6,0,1.1-0.5,1.1-1.1V-32.6z M250.7-51.9c0.1,0.1,0.3,0.1,0.4,0.1c0.4,0,0.8-0.3,1-0.7l5.1-13.1c0.2-0.6-0.1-1.2-0.6-1.4
			c-0.6-0.2-1.2,0.1-1.4,0.6l-5.1,13.1C249.9-52.7,250.1-52.1,250.7-51.9z M260.5-4.3l-3.3-8.8c-0.2-0.6-0.8-0.8-1.4-0.6
			c-0.6,0.2-0.8,0.8-0.6,1.4l3.3,8.8c0.2,0.4,0.6,0.7,1,0.7c0.1,0,0.3,0,0.4-0.1C260.4-3.1,260.7-3.7,260.5-4.3z M258.5-98.4
			L252-85.6c-0.3,0.5-0.1,1.2,0.5,1.5c0.2,0.1,0.3,0.1,0.5,0.1c0.4,0,0.8-0.2,1-0.6l6.6-12.8c0.3-0.5,0.1-1.2-0.5-1.5
			C259.4-99.1,258.8-98.9,258.5-98.4z M248.1-130.1l7.8,12.9c0.2,0.3,0.6,0.5,0.9,0.5c0.2,0,0.4,0,0.6-0.2c0.5-0.3,0.7-1,0.4-1.5
			l-7.8-12.9c-0.3-0.5-1-0.7-1.5-0.4C248-131.3,247.8-130.6,248.1-130.1z M236.2-106.1c-0.1,0.6,0.3,1.1,0.9,1.2l13.8,1.8
			c0,0,0.1,0,0.1,0c0.5,0,1-0.4,1.1-0.9c0.1-0.6-0.3-1.1-0.9-1.2l-13.8-1.8C236.8-107.1,236.3-106.7,236.2-106.1z M219.7-135.1
			c0.2,0.3,0.5,0.4,0.9,0.4c0.2,0,0.4-0.1,0.6-0.2l12.4-9c0.5-0.3,0.6-1,0.2-1.5c-0.3-0.5-1-0.6-1.5-0.2l-12.4,9
			C219.5-136.3,219.4-135.6,219.7-135.1z M217.6-286.1c0.2,0.1,0.4,0.2,0.6,0.2c0.4,0,0.7-0.2,0.9-0.5l5.2-7.9
			c0.3-0.5,0.2-1.2-0.3-1.5c-0.5-0.3-1.2-0.2-1.5,0.3l-5.2,7.9C217-287.1,217.1-286.4,217.6-286.1z M181.1-269.7c0.1,0,0.2,0,0.3,0
			c0.5,0,0.9-0.3,1-0.8l3.2-12.6c0.1-0.6-0.2-1.2-0.8-1.3c-0.6-0.1-1.2,0.2-1.3,0.8l-3.2,12.6C180.1-270.5,180.5-269.9,181.1-269.7z
			 M177.3-243.6l6.2,11.6c0.2,0.4,0.6,0.6,1,0.6c0.2,0,0.3,0,0.5-0.1c0.5-0.3,0.7-0.9,0.4-1.5l-6.2-11.6c-0.3-0.5-0.9-0.7-1.5-0.4
			C177.3-244.7,177.1-244.1,177.3-243.6z M165.6-233c-0.3-0.5-1-0.7-1.5-0.3c-0.5,0.3-0.7,1-0.3,1.5l6.8,10.8
			c0.2,0.3,0.6,0.5,0.9,0.5c0.2,0,0.4-0.1,0.6-0.2c0.5-0.3,0.7-1,0.3-1.5L165.6-233z M156.6-247c0.2,0.2,0.5,0.3,0.7,0.3
			c0.3,0,0.6-0.1,0.8-0.4l8.9-9.7c0.4-0.4,0.4-1.1-0.1-1.5c-0.4-0.4-1.1-0.4-1.5,0.1l-8.9,9.7C156.1-248.1,156.1-247.4,156.6-247z
			 M156.1-214.4l5,15c0.2,0.5,0.6,0.7,1,0.7c0.1,0,0.2,0,0.3-0.1c0.6-0.2,0.9-0.8,0.7-1.4l-5-15c-0.2-0.6-0.8-0.9-1.4-0.7
			C156.2-215.5,155.9-214.9,156.1-214.4z M148.8-179.9l15.2,13.7c0.2,0.2,0.5,0.3,0.7,0.3c0.3,0,0.6-0.1,0.8-0.4
			c0.4-0.4,0.4-1.1-0.1-1.5l-15.2-13.7c-0.4-0.4-1.1-0.4-1.5,0.1C148.3-181,148.4-180.3,148.8-179.9z M142.3-245.8L148-259
			c0.2-0.5,0-1.2-0.6-1.4c-0.5-0.2-1.2,0-1.4,0.6l-5.7,13.2c-0.2,0.5,0,1.2,0.6,1.4c0.1,0.1,0.3,0.1,0.4,0.1
			C141.7-245.2,142.1-245.4,142.3-245.8z M124.7-176.9l12.3,9.6c0.2,0.2,0.4,0.2,0.7,0.2c0.3,0,0.6-0.1,0.9-0.4
			c0.4-0.5,0.3-1.1-0.2-1.5l-12.3-9.6c-0.5-0.4-1.1-0.3-1.5,0.2C124.1-177.9,124.2-177.2,124.7-176.9z M94.6-167.4
			c0.2,0.3,0.5,0.4,0.8,0.4c0.2,0,0.5-0.1,0.7-0.2l6.2-4.9c0.5-0.4,0.5-1,0.2-1.5c-0.4-0.5-1-0.5-1.5-0.2l-6.2,4.9
			C94.3-168.6,94.3-167.9,94.6-167.4z M74.5-164.6c-0.3,0.5-0.2,1.2,0.4,1.5c0.2,0.1,0.4,0.2,0.6,0.2c0.4,0,0.7-0.2,0.9-0.5
			l7.8-12.6c0.3-0.5,0.2-1.2-0.4-1.5c-0.5-0.3-1.2-0.2-1.5,0.4L74.5-164.6z M70.6-222c-0.5,0.3-0.6,1-0.3,1.5l8.1,11.6
			c0.2,0.3,0.5,0.5,0.9,0.5c0.2,0,0.4-0.1,0.6-0.2c0.5-0.3,0.6-1,0.3-1.5l-8.1-11.6C71.7-222.3,71.1-222.4,70.6-222z M63.8-285
			c0.2,0.2,0.4,0.2,0.7,0.2c0.3,0,0.6-0.1,0.8-0.4l5.7-6.9c0.4-0.5,0.3-1.1-0.1-1.5c-0.5-0.4-1.1-0.3-1.5,0.1l-5.7,6.9
			C63.2-286.1,63.3-285.4,63.8-285z M66.2-181.9c0.1,0.5,0.6,0.9,1.1,0.9c0.1,0,0.1,0,0.2,0c0.6-0.1,1-0.7,0.9-1.3l-2.9-15
			c-0.1-0.6-0.7-1-1.3-0.9c-0.6,0.1-1,0.7-0.9,1.3L66.2-181.9z M64.8-152.2l-14-5.2c-0.6-0.2-1.2,0.1-1.4,0.6
			c-0.2,0.6,0.1,1.2,0.6,1.4l14,5.2c0.1,0,0.3,0.1,0.4,0.1c0.4,0,0.8-0.3,1-0.7C65.7-151.4,65.4-152,64.8-152.2z M57.1-243
			c0.1,0,0.2,0.1,0.3,0.1c0.5,0,0.9-0.3,1-0.7l4.4-13.3c0.2-0.6-0.1-1.2-0.7-1.4c-0.6-0.2-1.2,0.1-1.4,0.7l-4.4,13.3
			C56.2-243.8,56.5-243.2,57.1-243z M45.1-282.8l8.9,12.6c0.2,0.3,0.5,0.5,0.9,0.5c0.2,0,0.4-0.1,0.6-0.2c0.5-0.3,0.6-1,0.3-1.5
			L46.8-284c-0.3-0.5-1-0.6-1.5-0.3C44.9-284,44.7-283.3,45.1-282.8z M35.9-175.6c0.1,0,0.3,0.1,0.4,0.1c0.4,0,0.8-0.3,1-0.7
			l4.2-10.9c0.2-0.6-0.1-1.2-0.6-1.4c-0.6-0.2-1.2,0.1-1.4,0.6L35.2-177C35-176.5,35.3-175.9,35.9-175.6z M34.9-261.7
			c0.1-0.6-0.3-1.1-0.9-1.3c-0.6-0.1-1.1,0.3-1.3,0.9l-3.3,17.8c-0.1,0.6,0.3,1.1,0.9,1.3c0.1,0,0.1,0,0.2,0c0.5,0,1-0.4,1.1-0.9
			L34.9-261.7z M41.9-137.3l-7.1-10.1c-0.3-0.5-1-0.6-1.5-0.3c-0.5,0.3-0.6,1-0.3,1.5l7.1,10.1c0.2,0.3,0.5,0.5,0.9,0.5
			c0.2,0,0.4-0.1,0.6-0.2C42.1-136.1,42.2-136.8,41.9-137.3z M44-214.2l5.2-9.6c0.3-0.5,0.1-1.2-0.4-1.5c-0.5-0.3-1.2-0.1-1.5,0.4
			l-5.2,9.6c-0.3,0.5-0.1,1.2,0.4,1.5c0.2,0.1,0.3,0.1,0.5,0.1C43.4-213.6,43.8-213.8,44-214.2z M44.8-104.4l7.9,10.1
			c0.2,0.3,0.5,0.4,0.9,0.4c0.2,0,0.5-0.1,0.7-0.2c0.5-0.4,0.6-1,0.2-1.5l-7.9-10.1c-0.4-0.5-1-0.6-1.5-0.2
			C44.5-105.6,44.5-104.9,44.8-104.4z M48.9-64.9c0.2,0.2,0.4,0.2,0.7,0.2c0.3,0,0.6-0.1,0.8-0.4l5.9-7.2c0.4-0.5,0.3-1.1-0.2-1.5
			c-0.5-0.4-1.1-0.3-1.5,0.2l-5.9,7.2C48.4-66,48.5-65.3,48.9-64.9z M51.4-34.8l6.2-13.8c0.2-0.5,0-1.2-0.5-1.4
			c-0.5-0.2-1.2,0-1.4,0.5l-6.2,13.8c-0.2,0.5,0,1.2,0.5,1.4c0.1,0.1,0.3,0.1,0.4,0.1C50.8-34.2,51.2-34.4,51.4-34.8z M58.4-8.6
			l-3.9-9.2c-0.2-0.6-0.9-0.8-1.4-0.6c-0.5,0.2-0.8,0.9-0.6,1.4l3.9,9.2c0.2,0.4,0.6,0.7,1,0.7c0.1,0,0.3,0,0.4-0.1
			C58.4-7.4,58.7-8,58.4-8.6z M70.2-127.3c0.4,0,0.8-0.3,1-0.7c0.2-0.6,0-1.2-0.6-1.4L59.1-134c-0.5-0.2-1.2,0-1.4,0.6
			c-0.2,0.6,0,1.2,0.6,1.4l11.4,4.7C69.9-127.3,70-127.3,70.2-127.3z M81.2-46.5c-0.5-0.3-1.2-0.1-1.5,0.4l-5.5,10.3
			c-0.3,0.5-0.1,1.2,0.4,1.5c0.2,0.1,0.3,0.1,0.5,0.1c0.4,0,0.8-0.2,1-0.6l5.5-10.3C81.9-45.6,81.7-46.2,81.2-46.5z M120-8
			c0.1-0.6-0.3-1.1-0.9-1.2l-9.7-1.2c-0.6-0.1-1.1,0.3-1.2,0.9c-0.1,0.6,0.3,1.1,0.9,1.2l9.7,1.2c0,0,0.1,0,0.1,0
			C119.5-7.1,119.9-7.5,120-8z M126.3-33.7l-12.9-2.6c-0.6-0.1-1.2,0.3-1.3,0.8c-0.1,0.6,0.3,1.2,0.8,1.3l12.9,2.6
			c0.1,0,0.1,0,0.2,0c0.5,0,1-0.4,1.1-0.9C127.2-33,126.9-33.6,126.3-33.7z M130.3-89.4l19.3-28.4l0.8-1.2c1.4-2.9-0.7-7.2-5.1-11.6
			c0.3-1.9,0.5-4.1,0.3-6.3c-0.4-6.9-3.4-14.7-13.5-19.7c-0.3-0.1-0.6-0.3-0.9-0.4c-8.6-4-15.7-3-21.2-0.2c-0.4,0.2-0.8,0.4-1.2,0.7
			c-0.1,0.1-0.3,0.2-0.4,0.3c-0.3,0.2-0.5,0.3-0.8,0.5c-0.2,0.1-0.3,0.2-0.5,0.4c-0.2,0.1-0.4,0.3-0.6,0.4c-0.2,0.1-0.4,0.3-0.5,0.4
			c-0.2,0.1-0.3,0.3-0.5,0.4c-0.2,0.2-0.4,0.3-0.6,0.5c-0.1,0.1-0.3,0.2-0.4,0.4c-0.2,0.2-0.4,0.3-0.6,0.5c-0.1,0.1-0.3,0.2-0.4,0.3
			c-0.2,0.2-0.4,0.4-0.6,0.6c-0.1,0.1-0.2,0.2-0.3,0.3c-0.2,0.2-0.4,0.4-0.6,0.6c-0.1,0.1-0.1,0.2-0.2,0.2c0,0,0,0,0,0
			c-0.1,0.1-0.1,0.1-0.2,0.2c-6.1-0.5-10.6,0.7-11.9,3.6l-0.4,1.4l-8.9,31.6l-4.4,15.5l-0.6,0.1c0,0,0.2,0.1,0.5,0.1l-4.8,17.1
			l-0.8,2.9c-1.4,3,4.1,8.6,12.7,13.4l-0.3,0.1c0,0,0.2,0,0.4,0c0.6,0.3,1.1,0.6,1.7,0.9c0,0,0,0,0,0c0.8,0.4,1.6,0.8,2.5,1.2
			c11,5.1,21.2,6.4,22.8,3l9.4-13.9L130.3-89.4z M133.6-57.5l3.7-11.9c0.2-0.6-0.1-1.2-0.7-1.4c-0.6-0.2-1.2,0.1-1.4,0.7l-3.7,11.9
			c-0.2,0.6,0.1,1.2,0.7,1.4c0.1,0,0.2,0,0.3,0C133.1-56.8,133.5-57.1,133.6-57.5z M146.2-29.6c-0.5-0.4-1.2-0.3-1.5,0.2L136.2-18
			c-0.4,0.5-0.3,1.2,0.2,1.5c0.2,0.1,0.4,0.2,0.6,0.2c0.3,0,0.7-0.1,0.9-0.4l8.5-11.4C146.8-28.6,146.7-29.2,146.2-29.6z
			 M150.6-77.4l4.4-14.7c0.2-0.6-0.1-1.2-0.7-1.3c-0.6-0.2-1.2,0.2-1.3,0.7l-4.4,14.7c-0.2,0.6,0.1,1.2,0.7,1.3c0.1,0,0.2,0,0.3,0
			C150-76.7,150.4-77,150.6-77.4z M160.1-56.7c-0.5-0.3-1.2-0.1-1.5,0.4l-4.6,8.6c-0.3,0.5-0.1,1.2,0.4,1.5c0.2,0.1,0.3,0.1,0.5,0.1
			c0.4,0,0.8-0.2,1-0.6l4.6-8.6C160.9-55.7,160.7-56.4,160.1-56.7z M167.7-129.6c0.1,0,0.1,0,0.2,0c0.6-0.1,1-0.7,0.9-1.3l-3-16.3
			c-0.1-0.6-0.7-1-1.3-0.9c-0.6,0.1-1,0.7-0.9,1.3l3,16.3C166.7-130,167.2-129.6,167.7-129.6z M176.1-83.5l-7.1-14.8
			c-0.3-0.5-0.9-0.8-1.4-0.5c-0.5,0.3-0.8,0.9-0.5,1.4l7.1,14.8c0.2,0.4,0.6,0.6,1,0.6c0.2,0,0.3,0,0.5-0.1
			C176.2-82.4,176.4-83,176.1-83.5z M182.4-106.5l-6.3-11.8c-0.3-0.5-0.9-0.7-1.5-0.4c-0.5,0.3-0.7,0.9-0.4,1.5l6.3,11.8
			c0.2,0.4,0.6,0.6,1,0.6c0.2,0,0.3,0,0.5-0.1C182.5-105.3,182.7-106,182.4-106.5z M184.8-164.9c-0.5-0.3-1.2-0.2-1.5,0.3l-9,12.8
			c-0.3,0.5-0.2,1.2,0.3,1.5c0.2,0.1,0.4,0.2,0.6,0.2c0.3,0,0.7-0.2,0.9-0.5l9-12.8C185.4-163.9,185.3-164.6,184.8-164.9z
			 M191.4-190.9c0.5-0.4,0.5-1.1,0.1-1.5c-0.4-0.5-1.1-0.5-1.5-0.1l-9.3,8.1c-0.5,0.4-0.5,1.1-0.1,1.5c0.2,0.2,0.5,0.4,0.8,0.4
			c0.3,0,0.5-0.1,0.7-0.3L191.4-190.9z M192.4-133.1l-0.6-7.2c-0.1-0.6-0.6-1-1.2-1c-0.6,0.1-1,0.6-1,1.2l0.6,7.2c0,0.6,0.5,1,1.1,1
			c0,0,0.1,0,0.1,0C192-132,192.5-132.5,192.4-133.1z M196.2-256.4c0.1,0.1,0.3,0.1,0.4,0.1c0.4,0,0.8-0.2,1-0.7
			c0.2-0.5,0-1.2-0.6-1.4l-10.6-4.5c-0.5-0.2-1.2,0-1.4,0.6c-0.2,0.5,0,1.2,0.6,1.4L196.2-256.4z M205-112.9
			c-0.6-0.2-1.2,0.2-1.3,0.8l-3,11.8c-0.1,0.6,0.2,1.2,0.8,1.3c0.1,0,0.2,0,0.3,0c0.5,0,0.9-0.3,1-0.8l3-11.8
			C205.9-112.2,205.6-112.8,205-112.9z M205.5-167.8c-0.4-0.4-1.1-0.4-1.5,0l-10.2,10.6c-0.4,0.4-0.4,1.1,0,1.5
			c0.2,0.2,0.5,0.3,0.7,0.3c0.3,0,0.6-0.1,0.8-0.3l10.2-10.6C205.9-166.7,205.9-167.4,205.5-167.8z M213.9-218.9
			c-0.4-0.4-1.1-0.5-1.5-0.1l-8.3,7.2c-0.4,0.4-0.5,1.1-0.1,1.5c0.2,0.2,0.5,0.4,0.8,0.4c0.3,0,0.5-0.1,0.7-0.3l8.3-7.2
			C214.2-217.7,214.3-218.4,213.9-218.9z M215.1-244.9c-0.5-0.4-1.1-0.3-1.5,0.1l-9.7,11.6c-0.4,0.5-0.3,1.1,0.1,1.5
			c0.2,0.2,0.4,0.2,0.7,0.2c0.3,0,0.6-0.1,0.8-0.4l9.7-11.6C215.6-243.8,215.5-244.5,215.1-244.9z M224-262.8L209.2-273
			c-0.5-0.3-1.2-0.2-1.5,0.3c-0.3,0.5-0.2,1.2,0.3,1.5l14.8,10.3c0.2,0.1,0.4,0.2,0.6,0.2c0.3,0,0.7-0.2,0.9-0.5
			C224.6-261.8,224.5-262.4,224-262.8z M236.2-288.1c0,0.6,0.5,1.1,1.1,1.1c0.6,0,1.1-0.5,1.1-1.1v-9.8c0-0.6-0.5-1.1-1.1-1.1
			c-0.6,0-1.1,0.5-1.1,1.1V-288.1z M240.4-236l-8.3-8.8c-0.4-0.4-1.1-0.5-1.5,0c-0.4,0.4-0.5,1.1,0,1.5l8.3,8.8
			c0.2,0.2,0.5,0.3,0.8,0.3c0.3,0,0.5-0.1,0.7-0.3C240.8-234.9,240.8-235.6,240.4-236z M253.2-291.8c-0.5-0.3-1.2-0.1-1.5,0.4
			l-7.3,12c-0.3,0.5-0.1,1.2,0.4,1.5c0.2,0.1,0.4,0.2,0.6,0.2c0.4,0,0.7-0.2,0.9-0.5l7.3-12C253.9-290.9,253.7-291.5,253.2-291.8z
			 M267.2-254.4c-0.3-0.5-1-0.6-1.5-0.3l-10.1,7c-0.5,0.3-0.6,1-0.3,1.5c0.2,0.3,0.5,0.5,0.9,0.5c0.2,0,0.4-0.1,0.6-0.2l10.1-7
			C267.4-253.2,267.5-253.9,267.2-254.4z M266.9-285.8c-0.5-0.3-1.2-0.1-1.5,0.4l-5.1,8.7c-0.3,0.5-0.1,1.2,0.4,1.5
			c0.2,0.1,0.4,0.1,0.5,0.1c0.4,0,0.7-0.2,0.9-0.5l5.1-8.7C267.5-284.9,267.4-285.6,266.9-285.8z M276.2-235.5
			c-0.4-0.4-1.1-0.4-1.5,0l-6.3,6.1c-0.4,0.4-0.4,1.1,0,1.5c0.2,0.2,0.5,0.3,0.8,0.3c0.3,0,0.5-0.1,0.8-0.3l6.3-6.1
			C276.6-234.4,276.6-235.1,276.2-235.5z M300.1-211.8l-11.6-7.6c-0.5-0.3-1.2-0.2-1.5,0.3c-0.3,0.5-0.2,1.2,0.3,1.5l11.6,7.6
			c0.2,0.1,0.4,0.2,0.6,0.2c0.4,0,0.7-0.2,0.9-0.5C300.8-210.8,300.6-211.5,300.1-211.8z M295.8-248.6l-8.6,7.5
			c-0.4,0.4-0.5,1.1-0.1,1.5c0.2,0.2,0.5,0.4,0.8,0.4c0.3,0,0.5-0.1,0.7-0.3l8.6-7.5c0.4-0.4,0.5-1.1,0.1-1.5
			C297-249,296.3-249,295.8-248.6z"/>
		<path class="st2" d="M31.3-167L0-184v14.8c7.5-0.1,15-1,22.2-2.8L31.3-167z"/>
		<path class="st3" d="M31.3-167l-9.1-4.9c-7.2,1.8-14.7,2.7-22.2,2.8v12.1l29.3-1.3C34-158.5,35.5-164.8,31.3-167z"/>
		<path class="st4" d="M281.2-163.3c-1.3-2.8-3.6-5-6.1-6.8c0.3,0.1,0.6,0.2,0.9,0.3c0.1,0,0.2,0,0.3,0.1c0.2,0,0.4,0.1,0.6,0.1
			c0.1,0,0.2,0,0.3,0c0.2,0,0.5,0,0.7,0c0.1,0,0.2,0,0.2,0c0.3,0,0.6,0,0.9-0.1c0,0,0.1,0,0.1,0c0.3,0,0.5-0.1,0.8-0.2
			c0.1,0,0.2,0,0.2-0.1c0.2-0.1,0.4-0.1,0.7-0.2c0.1,0,0.2-0.1,0.2-0.1c0.2-0.1,0.5-0.2,0.7-0.4c0,0,0.1,0,0.1-0.1
			c0.3-0.2,0.5-0.3,0.8-0.5c1.3-0.9,2.3-2.2,2.7-3.7c1.3-4.1-1.7-9-5.9-9.8c3.4-0.3,6.8-1.8,8.8-4.6c0.7-1,1.2-2.2,1.4-3.4
			c0.4-2.1,0-4.4-1.3-6.1c-2.1-2.7-6-3.4-9.3-2.5c-1.1,0.3-2.2,0.8-3.2,1.4c-4.9-5.5-10.2-10.7-16.6-13.9c-0.2,0.7-0.2,1.4-0.1,2.2
			c0.9,5.6,0,10.8-3.3,15.4c-2.4,3.4,3.4,4.5,3.6,7.5c0.2,5-6.2,6.4-8.5,10.3c-0.6,0.7-0.8,1.7-0.6,2.6c0.7,3.3,2.3,6.6,2.2,10.1
			c-0.1,1.2-0.2,2.7-1,3.7c-2.3,2.7-5.1,5.5-8.3,7.6c6.5,0.6,13.1-0.4,18.3-3.7c2.1,5,7.9,8.5,13.3,7.4c2.4-0.5,4.7-1.8,6.1-3.9
			c0.3-0.5,0.6-1.1,0.8-1.6C282.6-158.4,282.3-161.1,281.2-163.3z"/>
		<path class="st2" d="M288.3-189.2c-2,2.8-5.4,4.3-8.8,4.6c4.2,0.8,7.1,5.7,5.9,9.8c-0.5,1.5-1.5,2.8-2.7,3.7c0,0,0,0,0,0
			c7.6,1.4,15.3,2.1,23,2V-184l-16-8.7C289.5-191.4,289-190.2,288.3-189.2z"/>
		<path class="st5" d="M243.3-154.3C243.3-154.3,243.3-154.3,243.3-154.3C243.3-154.3,243.3-154.3,243.3-154.3
			c-0.5,0-0.9-0.1-1.4-0.2c-0.1,0-0.2,0-0.4,0c-0.4-0.1-0.9-0.1-1.3-0.2c-0.1,0-0.2,0-0.4-0.1c-0.4-0.1-0.9-0.2-1.3-0.3
			c-0.1,0-0.2,0-0.3-0.1c-0.5-0.1-1.1-0.3-1.6-0.4c-7.5-2-13.5-5.9-17.2-11.7l1-4.6c0.1-0.6-0.2-1.1-0.8-1.2
			c-0.6-0.1-1.1,0.2-1.2,0.8l-0.5,2.4c-1.4-3-2.3-6.3-2.5-10c-0.1-1.5-0.1-3.1,0-4.6l3.9-1.1c0.4-0.1,0.6-0.4,0.7-0.8
			c0-0.2,0-0.3,0-0.5c-0.2-0.5-0.7-0.8-1.3-0.7l-3.1,0.9c0.5-4.5,1.9-8.9,3.9-12.8l5.1,2.3c0.5,0.2,1.1,0,1.4-0.5
			c0-0.1,0.1-0.1,0.1-0.2c0.1-0.5-0.1-0.9-0.6-1.1l-5-2.3c1.7-2.8,3.7-5.3,6.1-7.5l0.7,3.9c0.1,0.6,0.6,0.9,1.2,0.8
			c0.4-0.1,0.7-0.4,0.8-0.8c0-0.1,0-0.3,0-0.4l-0.9-5c5.6-4.4,12.7-6.9,20.7-6.2c0.6,0.1,1.2,0.1,1.9,0.2c0.1,0,0.3,0,0.4,0.1
			c0.6,0.1,1.2,0.2,1.7,0.4c0.1,0,0.2,0.1,0.3,0.1c0.5,0.1,1,0.3,1.4,0.4c0.2,0,0.3,0.1,0.5,0.1c0.5,0.2,1,0.4,1.5,0.5
			c0.2,0.1,0.3,0.1,0.5,0.2c0.4,0.2,0.8,0.3,1.2,0.5c0.2,0.1,0.3,0.1,0.5,0.2c0,0,0.1,0,0.1,0c0,0,0,0,0,0c-0.2,0.7-0.2,1.4-0.1,2.2
			c0.9,5.6,0,10.8-3.3,15.4c-2.4,3.4,3.4,4.5,3.6,7.5c0.2,5-6.2,6.4-8.5,10.3c-0.6,0.7-0.8,1.7-0.6,2.6c0.7,3.3,2.3,6.6,2.2,10.1
			c-0.1,1.2-0.2,2.7-1,3.7C249.3-159.2,246.5-156.4,243.3-154.3z M226.4-192.2c0.4,0.4,1.1,0.3,1.4-0.1l6.6-7.8
			c0.1-0.1,0.2-0.3,0.2-0.4c0.1-0.4,0-0.7-0.3-1c-0.4-0.4-1.1-0.3-1.4,0.1l-6.6,7.8C225.9-193.2,226-192.6,226.4-192.2z
			 M231.4-168.9c0.1-0.3,0-0.6-0.2-0.8l-5.5-7.1c-0.3-0.4-1-0.5-1.4-0.2c-0.4,0.3-0.5,1-0.2,1.4l5.5,7.1c0.3,0.4,1,0.5,1.4,0.2
			C231.2-168.5,231.3-168.7,231.4-168.9z M234.1-179.6l-6.2-3.9c-0.5-0.3-1.1-0.2-1.4,0.3c-0.3,0.5-0.2,1.1,0.3,1.4l6.2,3.9
			c0.5,0.3,1.1,0.2,1.4-0.3c0.1-0.1,0.1-0.2,0.1-0.3C234.6-178.9,234.5-179.4,234.1-179.6z M240.9-185.7c0.5,0.2,1.1,0,1.4-0.5
			c0-0.1,0.1-0.2,0.1-0.2c0.1-0.5-0.1-0.9-0.6-1.1l-6.6-3.2c-0.5-0.2-1.1,0-1.4,0.5c-0.2,0.5,0,1.1,0.5,1.4L240.9-185.7z M242.9-167
			l-1.2-8.7c-0.1-0.6-0.6-0.9-1.1-0.9c-0.6,0.1-0.9,0.6-0.9,1.1l1.2,8.8c0.1,0.6,0.6,0.9,1.1,0.9c0.4-0.1,0.8-0.4,0.9-0.8
			C242.9-166.8,242.9-166.9,242.9-167z M244.5-197.1l-3.6-7.5c-0.2-0.5-0.9-0.7-1.4-0.5c-0.5,0.2-0.7,0.9-0.5,1.4l3.6,7.5
			c0.2,0.5,0.9,0.7,1.4,0.5c0.3-0.1,0.5-0.4,0.6-0.7C244.6-196.6,244.6-196.9,244.5-197.1z M246.3-208.9l9.4,0.7
			c0.5,0,1-0.3,1.1-0.8c0,0,0-0.1,0-0.1c0-0.6-0.4-1.1-0.9-1.1l-9.4-0.7c-0.6,0-1.1,0.4-1.1,0.9
			C245.3-209.4,245.8-208.9,246.3-208.9z"/>
		<path class="st6" d="M256.8-208.9c0,0,0-0.1,0-0.1c0-0.6-0.4-1.1-0.9-1.1l-9.4-0.7c-0.6,0-1.1,0.4-1.1,0.9c0,0.6,0.4,1.1,0.9,1.1
			l9.4,0.7C256.2-208.1,256.7-208.4,256.8-208.9z"/>
		<path class="st7" d="M228.6-204c0.4-0.1,0.7-0.4,0.8-0.8c0-0.1,0-0.3,0-0.4l-0.9-5l-0.6-3.6c-0.1-0.6-0.6-0.9-1.2-0.8
			c-0.6,0.1-0.9,0.6-0.8,1.2l0.9,4.8l0.7,3.9C227.5-204.3,228.1-203.9,228.6-204z"/>
		<path class="st1" d="M240.8-204.6c-0.2-0.5-0.9-0.7-1.4-0.5c-0.5,0.2-0.7,0.9-0.5,1.4l3.6,7.5c0.2,0.5,0.9,0.7,1.4,0.5
			c0.3-0.1,0.5-0.4,0.6-0.7c0-0.2,0-0.4-0.1-0.7L240.8-204.6z"/>
		<path class="st3" d="M282.7-171.2C282.7-171.2,282.7-171.2,282.7-171.2c-0.3,0.2-0.6,0.4-0.8,0.5c0,0-0.1,0-0.1,0.1
			c-0.2,0.1-0.5,0.2-0.7,0.4c-0.1,0-0.2,0.1-0.2,0.1c-0.2,0.1-0.4,0.2-0.7,0.2c-0.1,0-0.2,0.1-0.2,0.1c-0.3,0.1-0.5,0.1-0.8,0.2
			c0,0-0.1,0-0.1,0c-0.3,0-0.6,0.1-0.9,0.1c-0.1,0-0.2,0-0.2,0c-0.2,0-0.5,0-0.7,0c-0.1,0-0.2,0-0.3,0c-0.2,0-0.4-0.1-0.6-0.1
			c-0.1,0-0.2,0-0.3-0.1c-0.3-0.1-0.6-0.2-0.9-0.3c2.5,1.8,4.8,4,6.1,6.8c1.1,2.2,1.4,4.9,0.6,7.3l23.9-1v-12.1
			C298.1-169.1,290.3-169.8,282.7-171.2z"/>
		<path class="st6" d="M227.9-192.3l6.6-7.8c0.1-0.1,0.2-0.3,0.2-0.4c0.1-0.4,0-0.7-0.3-1c-0.4-0.4-1.1-0.3-1.4,0.1l-6.6,7.8
			c-0.4,0.4-0.3,1.1,0.1,1.4C226.8-191.9,227.5-191.9,227.9-192.3z"/>
		<path class="st7" d="M226.2-197.6c0-0.1,0.1-0.1,0.1-0.2c0.1-0.5-0.1-0.9-0.6-1.1l-5-2.3l-2.4-1.1c-0.5-0.2-1.1,0-1.4,0.5
			c-0.2,0.5,0,1.1,0.5,1.4l2.2,1l5.1,2.3C225.3-196.8,225.9-197.1,226.2-197.6z"/>
		<path class="st1" d="M242.3-186.1c0-0.1,0.1-0.2,0.1-0.2c0.1-0.5-0.1-0.9-0.6-1.1l-6.6-3.2c-0.5-0.2-1.1,0-1.4,0.5
			c-0.2,0.5,0,1.1,0.5,1.4l6.6,3.2C241.4-185.4,242-185.6,242.3-186.1z"/>
		<path class="st7" d="M220.1-186.4c0-0.2,0-0.3,0-0.5c-0.2-0.5-0.7-0.8-1.3-0.7l-3.1,0.9l-6.4,1.9c-0.5,0.2-0.9,0.7-0.7,1.3
			c0.2,0.5,0.7,0.9,1.3,0.7l5.6-1.6l3.9-1.1C219.8-185.7,220.1-186,220.1-186.4z"/>
		<path class="st7" d="M234.1-179.6l-6.2-3.9c-0.5-0.3-1.1-0.2-1.4,0.3c-0.3,0.5-0.2,1.1,0.3,1.4l6.2,3.9c0.5,0.3,1.1,0.2,1.4-0.3
			c0.1-0.1,0.1-0.2,0.1-0.3C234.6-178.9,234.5-179.4,234.1-179.6z"/>
		<path class="st6" d="M240.5-176.6c-0.6,0.1-0.9,0.6-0.9,1.1l1.2,8.8c0.1,0.6,0.6,0.9,1.1,0.9c0.4-0.1,0.8-0.4,0.9-0.8
			c0-0.1,0-0.2,0-0.4l-1.2-8.7C241.6-176.3,241.1-176.7,240.5-176.6z"/>
		<path class="st1" d="M225.7-176.8c-0.3-0.4-1-0.5-1.4-0.2c-0.4,0.3-0.5,1-0.2,1.4l5.5,7.1c0.3,0.4,1,0.5,1.4,0.2
			c0.2-0.2,0.3-0.4,0.4-0.6c0.1-0.3,0-0.6-0.2-0.8L225.7-176.8z"/>
		<path class="st6" d="M219.8-173c-0.6-0.1-1.1,0.2-1.2,0.8l-0.5,2.4l-1.6,7.5c-0.1,0.6,0.2,1.1,0.8,1.2c0.6,0.1,1.1-0.2,1.2-0.8
			l1.1-5.3l1-4.6C220.7-172.3,220.4-172.8,219.8-173z"/>
		<path class="st2" d="M142.3-115.3c-18.2,13.6-40,16.9-53.6,17.3c0,0,0,0,0,0c-1.3,6.2-2.3,12.5-2.9,18.8
			c12.9,0.9,31.7,0.1,44.5-10.2l19.3-28.4C148.1-116.3,145.6-115.5,142.3-115.3z"/>
		<path class="st8" d="M145-129.6c-0.2,0.8-0.3,1.6-0.5,2.3c2.1,2.6,3,4.9,2.2,6.6c-2.2,4.7-15.9,2.9-30.6-4c-5.9-2.7-11-5.9-15-8.9
			c0,0,0.1,0,0.1,0.1c-0.4,0.8-0.8,1.6-1.2,2.4c4.1,3.1,9.2,6.2,15,8.9c2,0.9,3.9,1.7,5.8,2.5c8.3,3.2,16,4.7,21.5,4.4
			c3.3-0.2,5.8-1,7.2-2.5l0.8-1.2c1.4-2.9-0.7-7.2-5.1-11.6C145.2-130.2,145.1-129.9,145-129.6C145-129.6,145-129.6,145-129.6z"/>
		<path class="st9" d="M128.8-127.7c0.1,0,0.2,0.1,0.3,0.1l6.6,0.7c0.6,0.1,1.2-0.4,1.2-1c0.1-0.6-0.4-1.2-1-1.2l-6.6-0.7
			c-0.6-0.1-1.2,0.4-1.2,1C128.1-128.3,128.4-127.9,128.8-127.7z"/>
		<path class="st2" d="M106.1-67.2c-8.3,2-17.3,2.3-21.2,2.4c0,0,0,0,0,0c0,0.3,0,0.6,0,0.9c0.8,0.4,1.6,0.8,2.5,1.2
			c11,5.1,21.2,6.4,22.8,3l9.4-13.9l0,0C116.5-70.6,111.5-68.5,106.1-67.2z"/>
		<path class="st10" d="M99.4-148c0.6-0.9,1.4-1.8,2.2-2.7c0.1-0.1,0.1-0.1,0.2-0.2c1.1,2.4,2.7,4.4,4.9,5.3
			c0.8,0.4,1.7,0.4,2.6,0.3l0.3,2c0.1,0.4,0.3,0.7,0.6,0.9c0.2,0.1,0.4,0.1,0.6,0.1c0.6-0.1,1.1-0.6,1-1.3l-0.3-2.1
			c1.9-0.3,3.8-0.6,5.6,0.9c1.5,1.1,1.8,2.9,2.5,4.3c0.3,0.9,0.5,1.8,0.7,2.7l1.2-0.8l-6.5,4.6c-0.5,0.4-0.6,1.1-0.3,1.6
			c0.1,0.2,0.3,0.3,0.4,0.4c0.4,0.2,0.8,0.1,1.1-0.1l4.8-3.4c3,5.7,8.4,1.2,12.7-1.1c0.7-0.6,1.7,0.1,2.3,0.8
			c1.8,2.9,1.8,10.1,6.7,7.4c0.8-0.4,1.5-0.8,2.2-1.2c-0.2,0.8-0.3,1.6-0.5,2.3c2.1,2.6,3,4.9,2.2,6.6c-2.2,4.7-15.9,2.9-30.6-4
			c-5.9-2.7-11-5.9-15-8.9c-0.3-0.2-0.6-0.5-0.9-0.7c0,0-0.1,0-0.1-0.1c-0.3-0.3-0.7-0.6-1-0.8c0,0-0.1,0-0.1-0.1
			c-0.3-0.2-0.5-0.5-0.8-0.7c-0.1-0.1-0.1-0.1-0.2-0.2c-0.2-0.2-0.4-0.4-0.6-0.6c-0.1-0.1-0.2-0.2-0.2-0.2c-0.2-0.2-0.4-0.4-0.6-0.6
			c-0.1-0.1-0.1-0.1-0.2-0.2c-0.2-0.2-0.4-0.5-0.6-0.7c0,0,0,0-0.1-0.1c-0.2-0.3-0.4-0.5-0.6-0.8c0,0-0.1-0.1-0.1-0.1
			c-0.1-0.2-0.3-0.4-0.4-0.6c-0.1-0.1-0.1-0.2-0.1-0.2c-0.1-0.2-0.2-0.3-0.3-0.5c0-0.1-0.1-0.2-0.1-0.2c-0.1-0.2-0.2-0.3-0.3-0.5
			c0-0.1-0.1-0.1-0.1-0.2c-0.1-0.2-0.2-0.4-0.3-0.6c0,0,0,0,0-0.1c-0.1-0.2-0.1-0.4-0.2-0.6c0-0.1,0-0.1,0-0.2
			c0-0.1-0.1-0.3-0.1-0.4c0-0.1,0-0.1,0-0.2c0-0.1,0-0.3,0-0.4c0-0.1,0-0.1,0-0.2c0-0.1,0-0.3,0.1-0.4c0-0.1,0-0.1,0-0.2
			c0-0.2,0.1-0.3,0.2-0.5C94.1-147.1,96.3-147.9,99.4-148z M128.2-128.8c-0.1,0.5,0.2,0.9,0.6,1.1c0.1,0,0.2,0.1,0.3,0.1l6.6,0.7
			c0.6,0.1,1.2-0.4,1.2-1c0.1-0.6-0.4-1.2-1-1.2l-6.6-0.7C128.8-129.9,128.3-129.5,128.2-128.8z M103-142.9l3.7,4.8
			c0.1,0.1,0.3,0.3,0.4,0.3c0.4,0.2,0.8,0.1,1.2-0.1c0.5-0.4,0.6-1.1,0.2-1.6l-3.7-4.8c-0.4-0.5-1.1-0.6-1.6-0.2
			C102.7-144.1,102.6-143.4,103-142.9z"/>
		<path class="st2" d="M120.7-119.5l0.1-0.2c-1.9-0.7-3.8-1.6-5.8-2.5c-5.8-2.7-10.9-5.7-15-8.9c0,0,0,0,0,0
			c-2.7,5.6-5.1,11.4-7,17.3C109.3-114.4,120.5-119.4,120.7-119.5C120.7-119.5,120.7-119.5,120.7-119.5z"/>
		<path class="st1" d="M129.5-138.7l0.2,1.9c0,0.4,0.3,0.7,0.6,0.9c0.2,0.1,0.4,0.1,0.6,0.1c0.6-0.1,1.1-0.6,1-1.2l0-0.3l-0.3-3.2
			l-0.4-3.8c-0.1-0.6-0.6-1.1-1.2-1c-0.6,0.1-1.1,0.6-1,1.2l0.2,2.2L129.5-138.7z"/>
		<path class="st9" d="M137-140.4c0.1,0.2,0.3,0.3,0.4,0.3c0.4,0.2,0.8,0.1,1.2-0.1c0.5-0.4,0.6-1.1,0.2-1.6l-6.3-8.3
			c-0.4-0.5-1.1-0.6-1.6-0.2c-0.5,0.4-0.6,1.1-0.2,1.6L137-140.4z"/>
		<path class="st1" d="M123.1-138.3c-0.4-0.5-1.1-0.6-1.6-0.3l-6.5,4.6c-0.5,0.4-0.6,1.1-0.3,1.6c0.1,0.2,0.3,0.3,0.4,0.4
			c0.4,0.2,0.8,0.1,1.1-0.1l4.8-3.4l1.7-1.2C123.3-137.1,123.4-137.8,123.1-138.3z"/>
		<path class="st1" d="M118.2-145.2c-0.3,0.3-0.3,0.8-0.1,1.2c0.1,0.1,0.2,0.3,0.3,0.4c0.1,0.1,0.2,0.1,0.2,0.1
			c0.3,0.1,0.6,0.1,0.9,0c0.2-0.1,0.3-0.2,0.5-0.3l1.4-1.7l2.6-3.2c0.4-0.5,0.3-1.2-0.2-1.6c-0.5-0.4-1.2-0.3-1.6,0.2l-3,3.8
			L118.2-145.2z"/>
		<path class="st9" d="M113.9-151c0.3,0.2,0.7,0.1,1.1-0.1l5.2-3.3c0.5-0.3,0.7-1,0.4-1.5c-0.3-0.5-1-0.7-1.5-0.4l-5.2,3.3
			c-0.5,0.3-0.7,1-0.4,1.5C113.5-151.3,113.7-151.1,113.9-151z"/>
		<path class="st1" d="M111.1-149l-0.2-1.3c-0.1-0.6-0.6-1-1.3-1c-0.6,0.1-1,0.6-1,1.3l0.1,0.4l0.4,2.8l0.2,1.5l0.3,2
			c0.1,0.4,0.3,0.7,0.6,0.9c0.2,0.1,0.4,0.1,0.6,0.1c0.6-0.1,1.1-0.6,1-1.3l-0.3-2.1l-0.1-0.5L111.1-149z"/>
		<path class="st11" d="M85.8-79.2C85.8-79.2,85.8-79.2,85.8-79.2c-0.5,4.8-0.8,9.5-0.9,14.3c4,0,13-0.3,21.2-2.4
			c5.3-1.3,10.3-3.3,13.5-6.5l0,0l10.6-15.7C117.5-79.1,98.7-78.2,85.8-79.2z"/>
		<path class="st9" d="M106.7-138.1c0.1,0.1,0.3,0.3,0.4,0.3c0.4,0.2,0.8,0.1,1.2-0.1c0.5-0.4,0.6-1.1,0.2-1.6l-3.7-4.8
			c-0.4-0.5-1.1-0.6-1.6-0.2c-0.5,0.4-0.6,1.1-0.2,1.6L106.7-138.1z"/>
		<path class="st11" d="M120.8-119.7l-0.1,0.2c0,0,0,0,0,0c-0.2,0.1-11.4,5.1-27.7,5.8c0,0,0,0,0,0c-1.7,5.2-3.1,10.4-4.3,15.8
			c13.6-0.5,35.3-3.7,53.6-17.3C136.8-115,129.1-116.5,120.8-119.7z"/>
		<path class="st3" d="M71.2-81.2c0.1,0,2,0.5,5.2,1c0,0,0,0,0,0c1.3,0.1,2.7,0.3,4.3,0.6c0,0,0,0,0,0c1.6,0.2,3.3,0.3,5.1,0.5
			c0,0,0,0,0,0c0.6-6.3,1.6-12.6,2.9-18.8c-6.6,0.2-11.2-0.2-12.7-0.4L71.2-81.2L71.2-81.2C71.2-81.2,71.2-81.2,71.2-81.2z"/>
		<path class="st12" d="M100-131.1C100-131.1,100-131.1,100-131.1c0.4-0.8,0.8-1.6,1.2-2.4c0,0-0.1,0-0.1-0.1
			c-0.3-0.2-0.6-0.5-0.9-0.7c0,0-0.1,0-0.1-0.1c-0.3-0.3-0.7-0.6-1-0.8c0,0-0.1,0-0.1-0.1c-0.3-0.2-0.5-0.5-0.8-0.7
			c-0.1-0.1-0.1-0.1-0.2-0.2c-0.2-0.2-0.4-0.4-0.6-0.6c-0.1-0.1-0.2-0.2-0.2-0.2c-0.2-0.2-0.4-0.4-0.6-0.6c-0.1-0.1-0.1-0.1-0.2-0.2
			c-0.2-0.2-0.4-0.5-0.6-0.7c0,0,0,0-0.1-0.1c-0.2-0.3-0.4-0.5-0.6-0.8c0,0-0.1-0.1-0.1-0.1c-0.1-0.2-0.3-0.4-0.4-0.6
			c-0.1-0.1-0.1-0.2-0.1-0.2c-0.1-0.2-0.2-0.3-0.3-0.5c0-0.1-0.1-0.2-0.1-0.2c-0.1-0.2-0.2-0.3-0.3-0.5c0-0.1-0.1-0.1-0.1-0.2
			c-0.1-0.2-0.2-0.4-0.3-0.6c0,0,0,0,0-0.1c-0.1-0.2-0.1-0.4-0.2-0.6c0-0.1,0-0.1,0-0.2c0-0.1-0.1-0.3-0.1-0.4c0-0.1,0-0.1,0-0.2
			c0-0.1,0-0.3,0-0.4c0-0.1,0-0.1,0-0.2c0-0.1,0-0.3,0.1-0.4c0-0.1,0-0.1,0-0.2c0-0.2,0.1-0.3,0.2-0.5c0.8-1.6,2.9-2.5,6.1-2.6
			c0.6-0.9,1.4-1.8,2.2-2.7c-6.1-0.5-10.6,0.7-11.9,3.6l-0.4,1.4C88.9-141.8,93-136.4,100-131.1z"/>
		<path class="st3" d="M83.2-64.9c0.6,0.3,1.1,0.6,1.7,0.9c0,0,0,0,0,0c0-0.3,0-0.6,0-0.9C84.1-64.8,83.5-64.9,83.2-64.9z"/>
		<path class="st13" d="M101.8-150.9C101.8-150.9,101.8-150.9,101.8-150.9c0.1-0.1,0.1-0.2,0.2-0.2c0.2-0.2,0.4-0.4,0.6-0.6
			c0.1-0.1,0.2-0.2,0.3-0.3c0.2-0.2,0.4-0.4,0.6-0.6c0.1-0.1,0.2-0.2,0.4-0.3c0.2-0.2,0.4-0.3,0.6-0.5c0.1-0.1,0.3-0.2,0.4-0.4
			c0.2-0.2,0.4-0.3,0.6-0.5c0.2-0.1,0.3-0.3,0.5-0.4c0.2-0.1,0.4-0.3,0.5-0.4c0.2-0.1,0.4-0.3,0.6-0.4c0.2-0.1,0.3-0.2,0.5-0.4
			c0.2-0.2,0.5-0.3,0.8-0.5c0.1-0.1,0.3-0.2,0.4-0.3c0.4-0.2,0.8-0.5,1.2-0.7c5.5-2.8,12.6-3.8,21.2,0.2c0.3,0.1,0.6,0.3,0.9,0.4
			c10.1,5,13.1,12.8,13.5,19.7c0.1,2.2,0,4.4-0.3,6.3c-0.1,0.3-0.1,0.6-0.2,1c0,0,0,0,0,0c-0.7,0.4-1.4,0.9-2.2,1.2
			c-4.9,2.7-4.9-4.5-6.7-7.4c-0.6-0.7-1.6-1.4-2.3-0.8c-4.3,2.3-9.8,6.7-12.7,1.1l1.7-1.2c0.5-0.4,0.6-1.1,0.3-1.6
			c-0.4-0.5-1.1-0.6-1.6-0.3l-1.2,0.8c-0.2-0.9-0.3-1.8-0.7-2.7c-0.7-1.4-1-3.2-2.5-4.3c-1.8-1.4-3.7-1.2-5.6-0.9l-0.1-0.5l-0.4-2.8
			l-0.2-1.3c-0.1-0.6-0.6-1-1.3-1c-0.6,0.1-1,0.6-1,1.3l0.1,0.4l0.4,2.8l0.2,1.5c-0.9,0.1-1.8,0.1-2.6-0.3
			C104.6-146.5,102.9-148.5,101.8-150.9z M130.7-148.8l6.3,8.3c0.1,0.2,0.3,0.3,0.4,0.3c0.4,0.2,0.8,0.1,1.2-0.1
			c0.5-0.4,0.6-1.1,0.2-1.6l-6.3-8.3c-0.4-0.5-1.1-0.6-1.6-0.2C130.4-150,130.3-149.3,130.7-148.8z M129-144.1l0.2,2.2l0.3,3.2
			l0.2,1.9c0,0.4,0.3,0.7,0.6,0.9c0.2,0.1,0.4,0.1,0.6,0.1c0.6-0.1,1.1-0.6,1-1.2l0-0.3l-0.3-3.2l-0.4-3.8c-0.1-0.6-0.6-1.1-1.2-1
			C129.4-145.2,128.9-144.7,129-144.1z M122.2-150.1l-3,3.8l-1,1.2c-0.3,0.3-0.3,0.8-0.1,1.2c0.1,0.1,0.2,0.3,0.3,0.4
			c0.1,0.1,0.2,0.1,0.2,0.1c0.3,0.1,0.6,0.1,0.9,0c0.2-0.1,0.3-0.2,0.5-0.3l1.4-1.7l2.6-3.2c0.4-0.5,0.3-1.2-0.2-1.6
			C123.3-150.7,122.6-150.6,122.2-150.1z M113.4-151.5c0.1,0.2,0.3,0.3,0.5,0.4c0.3,0.2,0.7,0.1,1.1-0.1l5.2-3.3
			c0.5-0.3,0.7-1,0.4-1.5c-0.3-0.5-1-0.7-1.5-0.4l-5.2,3.3C113.2-152.7,113.1-152,113.4-151.5z"/>
		<path class="st3" d="M93-113.7C93-113.7,93-113.7,93-113.7c2-5.9,4.3-11.7,7-17.3c-7-5.3-11.1-10.8-10.7-14.7l-8.9,31.6
			C84.9-113.6,89.1-113.6,93-113.7z"/>
		<path class="st14" d="M82.8-64.9c0,0,0.2,0,0.4,0c0,0-0.1,0-0.1-0.1L82.8-64.9z"/>
		<path class="st7" d="M84.9-64.9C84.9-64.9,84.9-64.9,84.9-64.9c0.1-4.8,0.4-9.6,0.9-14.3c-1.8-0.1-3.5-0.3-5.1-0.5c0,0,0,0,0,0
			c-1.6-0.2-3-0.4-4.3-0.6c0,0,0,0,0,0c-3.2-0.5-5.1-1-5.2-1c0,0,0,0,0,0l0,0l-0.8,2.9c-1.4,3,4.1,8.6,12.7,13.4c0,0,0.1,0,0.1,0.1
			C83.5-64.9,84.1-64.8,84.9-64.9z"/>
		<path class="st14" d="M80.7-79.6c-1.6-0.3-3-0.5-4.3-0.6C77.7-80,79.1-79.8,80.7-79.6z"/>
		<path class="st7" d="M88.7-97.9C88.7-97.9,88.7-97.9,88.7-97.9c1.1-5.3,2.6-10.6,4.3-15.8c-3.9,0.2-8.1,0.1-12.6-0.4l-4.4,15.5
			L76-98.3C77.5-98.1,82.2-97.7,88.7-97.9z"/>
		<path class="st14" d="M75.5-98.4c0,0,0.2,0.1,0.5,0.1l0.1-0.2L75.5-98.4z"/>
		<path class="st2" d="M14.1-299.5c6.5-0.4,12.7-1,19.1-2.7c0.4-1.1,0.6-2.2,0.7-3.3c0,0,0-0.1,0-0.3H0v6.5
			C4.7-299,9.3-299.1,14.1-299.5z"/>
		<path class="st11" d="M21.8-261.6l0.9-33.1c-5.6,1.3-12,1.3-16.9,1.6c-1.9,0.1-3.9,0.2-5.8,0.2v35.2
			C7.8-257.3,15.9-258.1,21.8-261.6z"/>
		<path class="st3" d="M22.7-294.6c2.4-0.5,4.6-1.3,6.5-2.4c0.3-0.2,0.6-0.4,0.9-0.6c0.1-0.1,0.1-0.1,0.2-0.2
			c0.3-0.2,0.5-0.5,0.8-0.8c0,0,0-0.1,0.1-0.1c0.2-0.2,0.4-0.5,0.6-0.8c0.1-0.1,0.1-0.2,0.2-0.3c0.2-0.3,0.3-0.6,0.5-0.9
			c0-0.1,0.1-0.2,0.1-0.3c0.1-0.2,0.2-0.5,0.3-0.7c0.1-0.1,0.1-0.3,0.2-0.4c0-0.1,0-0.1,0.1-0.1c0,0,0,0,0,0
			c-6.3,1.8-12.5,2.3-19.1,2.7c-4.7,0.3-9.4,0.5-14.1,0.2v6.4c1.9,0,3.9-0.1,5.8-0.2C10.7-293.3,17.1-293.4,22.7-294.6z"/>
		<path class="st9" d="M0-20.4v-37l3.1-2.9c0.4-0.4,0.4-1,0-1.4c-0.4-0.4-1-0.4-1.4,0L0-60.2v-14.3c0.1,0.1,0.2,0.2,0.3,0.3l6.8,4
			C7.3-70.1,7.5-70,7.6-70c0.3,0,0.7-0.2,0.9-0.5c0.3-0.5,0.1-1.1-0.4-1.4l-6.8-4c-0.5-0.3-1.1-0.1-1.4,0.3v-15.2
			c3.1-3.7,4.7-8.6,4.1-13.4C5.3-98.8,8-93.8,12-90c4.5,4.3,10.8,7.6,14,12.6l-2.2,3.1c-0.3,0.5-0.2,1.1,0.2,1.4
			c0.2,0.1,0.4,0.2,0.6,0.2c0.3,0,0.6-0.1,0.8-0.4l1.7-2.4c0.4,0.8,0.6,1.6,0.8,2.5c1,4.6-0.8,9.3-3.1,13.4c3.7-0.4,7.5,1.2,9.8,4.1
			c2.3,2.9,3,7,1.8,10.5c-1.7,4.9-6.5,7.9-11,10.5c5.6,1.5,9.6,6.6,10.7,12.3c-5.9,2.2-13,0.2-18.2-3.2c0,1.4-0.8,3.1-2,3.7
			C10.8-18.6,5.3-18.7,0-20.4z M19.2-45.5c-0.5,0.3-0.7,0.9-0.4,1.4c0.2,0.3,0.5,0.5,0.9,0.5c0.2,0,0.3,0,0.5-0.1l9.8-5.1
			c0.5-0.3,0.7-0.9,0.4-1.4c-0.3-0.5-0.9-0.7-1.4-0.4L19.2-45.5z M16.4-65l0.5,11.1c0,0.5,0.5,1,1,1c0,0,0,0,0,0c0.6,0,1-0.5,1-1.1
			l-0.5-11.1c0-0.6-0.5-1-1.1-1C16.8-66,16.4-65.5,16.4-65z M14.7-75.9c0.2,0.1,0.3,0.1,0.5,0.1c0.4,0,0.7-0.2,0.9-0.5
			c0.3-0.5,0.1-1.1-0.4-1.4l-7.5-4C7.6-82,7-81.8,6.7-81.3c-0.3,0.5-0.1,1.1,0.4,1.4L14.7-75.9z M3.4-43.5h8c0.6,0,1-0.5,1-1
			c0-0.6-0.5-1-1-1h-8c-0.6,0-1,0.5-1,1C2.3-44,2.8-43.5,3.4-43.5z"/>
		<path class="st2" d="M31.6-8.8C20-3.9,9.3-2,0-1.7V0h33.9c0-1.6-0.7-9.5-1-9.4C32.5-9.2,32-9,31.6-8.8z"/>
		<path class="st6" d="M35.1-13.9c0.2-0.4,0.4-0.9,0.5-1.3c0-0.1,0.1-0.2,0.1-0.3c0.1-0.5,0.2-0.9,0.3-1.4c0,0,0,0,0-0.1
			c0.1-0.4,0.1-0.9,0.2-1.3c0-0.1,0-0.2,0-0.4c0-0.5,0-0.9,0-1.4c0,0,0-0.1,0-0.1c0-0.4-0.1-0.8-0.1-1.3c0-0.1,0-0.2-0.1-0.4
			c0-0.1,0-0.2,0-0.3c0,0,0,0,0,0c-5.9,2.2-13,0.2-18.2-3.2c0,1.4-0.8,3.1-2,3.7c-4.9,3.1-10.4,3-15.7,1.3v18.7
			C9.3-2,20-3.9,31.6-8.8C33.1-10.3,34.3-12,35.1-13.9z"/>
		<path class="st12" d="M18.8-44.1c0.2,0.3,0.5,0.5,0.9,0.5c0.2,0,0.3,0,0.5-0.1l9.8-5.1c0.5-0.3,0.7-0.9,0.4-1.4
			c-0.3-0.5-0.9-0.7-1.4-0.4l-9.8,5.1C18.7-45.2,18.5-44.6,18.8-44.1z"/>
		<path class="st12" d="M24-72.9c0.2,0.1,0.4,0.2,0.6,0.2c0.3,0,0.6-0.1,0.8-0.4l1.7-2.4l3.7-5.2c0.3-0.5,0.2-1.1-0.2-1.4
			c-0.5-0.3-1.1-0.2-1.4,0.2L26-77.4l-2.2,3.1C23.5-73.8,23.6-73.2,24-72.9z"/>
		<path class="st1" d="M17.9-52.9C18-52.9,18-52.9,17.9-52.9c0.6,0,1-0.5,1-1.1l-0.5-11.1c0-0.6-0.5-1-1.1-1c-0.6,0-1,0.5-1,1.1
			l0.5,11.1C17-53.3,17.4-52.9,17.9-52.9z"/>
		<path class="st1" d="M15.2-75.8c0.4,0,0.7-0.2,0.9-0.5c0.3-0.5,0.1-1.1-0.4-1.4l-7.5-4C7.6-82,7-81.8,6.7-81.3
			c-0.3,0.5-0.1,1.1,0.4,1.4l7.5,4C14.9-75.8,15-75.8,15.2-75.8z"/>
		<path class="st1" d="M12.4-44.6c0-0.6-0.5-1-1-1h-8c-0.6,0-1,0.5-1,1c0,0.6,0.5,1,1,1h8C12-43.5,12.4-44,12.4-44.6z"/>
		<path class="st12" d="M7.1-70.2C7.3-70.1,7.5-70,7.6-70c0.3,0,0.7-0.2,0.9-0.5c0.3-0.5,0.1-1.1-0.4-1.4l-6.8-4
			c-0.5-0.3-1.1-0.1-1.4,0.3v1.1c0.1,0.1,0.2,0.2,0.3,0.3L7.1-70.2z"/>
		<path class="st1" d="M3.1-61.7c-0.4-0.4-1-0.4-1.4,0L0-60.2v2.8l3.1-2.9C3.5-60.6,3.5-61.3,3.1-61.7z"/>
		<path class="st2" d="M280.4-305.7c0.3,0.3,0.6,0.5,1,0.8c4.1,2.7,8.2,3.5,12.7,4.3c3.9,0.8,7.8,1.3,11.7,1.5v-6.5H280.4z"/>
		<path class="st11" d="M285.6-293.9c0.3,0,0.6,0.1,0.9,0.1c-0.3,11.6,0.7,23.3,3.7,34.4c4.4,0.8,9.9,1.6,15.5,1.8v-35.2
			C299-292.7,292.3-293,285.6-293.9z"/>
		<path class="st3" d="M281.4-305c-0.4-0.2-0.7-0.5-1-0.8h-14.1c0.1,2,0.7,3.9,2,5.5c2.6,3.2,6.7,4.6,10.9,5.4
			c2.2,0.4,4.3,0.6,6.4,0.9c6.7,0.9,13.4,1.3,20.1,1.1v-6.4c-3.8-0.2-7.7-0.6-11.7-1.5C289.6-301.5,285.5-302.3,281.4-305z"/>
		<path class="st7" d="M280.9-261.6C280.9-261.6,280.9-261.6,280.9-261.6c0.1,0,0.1,0,0.2,0.1c0,0,0.1,0,0.1,0
			c0.1,0,0.2,0.1,0.3,0.1c0.1,0,0.1,0,0.2,0.1c0.1,0,0.2,0.1,0.3,0.1c0.1,0,0.2,0,0.2,0.1c0.2,0,0.4,0.1,0.6,0.1
			c0.1,0,0.2,0.1,0.3,0.1c0.1,0,0.3,0.1,0.4,0.1c0.1,0,0.3,0.1,0.4,0.1c0.2,0,0.3,0.1,0.5,0.1c0.2,0.1,0.4,0.1,0.7,0.2
			c0.2,0,0.4,0.1,0.6,0.1c0.2,0,0.3,0.1,0.5,0.1c0.2,0,0.4,0.1,0.6,0.1c0.2,0,0.3,0.1,0.5,0.1c0.3,0.1,0.7,0.1,1,0.2
			c0.2,0,0.3,0.1,0.5,0.1c0.3,0.1,0.5,0.1,0.8,0.2c0.2,0,0.3,0.1,0.5,0.1c0,0,0.1,0,0.1,0c0,0,0,0,0,0c-3.1-11.1-4-22.8-3.7-34.4
			c-0.3,0-0.6-0.1-0.9-0.1c-2-0.3-4.2-0.5-6.4-0.9C279.3-294.5,279.5-269.3,280.9-261.6C280.9-261.6,280.9-261.6,280.9-261.6z"/>
		<path class="st9" d="M305.7-90.8v15.2c0,0,0,0,0,0c-0.2,0.3-0.2,0.8,0,1.1v14.3l-5.9,5.5c-0.4,0.4-0.4,1,0,1.4
			c0.2,0.2,0.5,0.3,0.7,0.3c0.3,0,0.5-0.1,0.7-0.3l4.5-4.2v37c-4.8-1.5-9.5-4.4-13.5-7.4c-0.6-0.4-1.4-1.2-2.2-0.8
			c-1,0.8-1.4,1.8-2.2,2.4c-1.8,1.2-3.1,2.7-4.9,3.5c-1.4,0.6-3.1,0.6-4.5,0.8c-2,0-4.3,0-6.3,0c-2.4-0.2-4.9-1.2-6.9-2
			c-0.4-0.2-0.7-0.3-1.1-0.5c1.5-4.4,4.6-8.2,8.8-10.3c-4.5-1.3-9.8-3.2-11-7.8c-0.8-2.8,0.2-5.8,1.8-8.2c3.7-5.7,10.8-9.1,17.6-8.4
			c-2.9-1.8-5.7-4.2-6.8-7.4c-1.2-3.6,0-7.8,2.5-10.7c0.5-0.6,1.1-1.2,1.7-1.7l4.4,4c0.2,0.2,0.4,0.3,0.7,0.3c0.3,0,0.6-0.1,0.8-0.3
			c0.4-0.4,0.3-1.1-0.1-1.4l-4.1-3.7c1.9-1.3,4.2-2.2,6.4-2.8c4.4-1.2,9.2-1.4,13.4-3.4c0.5-0.2,1-0.5,1.5-0.8l2.2,2.4
			c0.2,0.2,0.5,0.3,0.8,0.3c0.2,0,0.5-0.1,0.7-0.3c0.4-0.4,0.4-1,0.1-1.4l-2-2.2C304.1-89,305-89.9,305.7-90.8z M287.4-41.9l-6.3-6
			c-0.4-0.4-1.1-0.4-1.4,0c-0.4,0.4-0.4,1.1,0,1.4l6.3,6c0.2,0.2,0.5,0.3,0.7,0.3c0.3,0,0.5-0.1,0.7-0.3
			C287.8-40.8,287.8-41.5,287.4-41.9z M293.3-50.5L292-61.1c-0.1-0.6-0.6-1-1.1-0.9c-0.6,0.1-1,0.6-0.9,1.1l1.3,10.6
			c0.1,0.5,0.5,0.9,1,0.9c0,0,0.1,0,0.1,0C292.9-49.5,293.3-50,293.3-50.5z M296.3-77.3c-0.4-0.4-1-0.5-1.4-0.1l-6.5,5.8
			c-0.4,0.4-0.5,1-0.1,1.4c0.2,0.2,0.5,0.3,0.8,0.3c0.2,0,0.5-0.1,0.7-0.3l6.5-5.8C296.6-76.2,296.7-76.8,296.3-77.3z"/>
		<path class="st2" d="M275.8-6.4c0.3,0.1,0.7,0.3,1,0.4c0.6,2.3,1.7,4.4,3.6,6h25.3v-1.7C292.4-1.2,282-4,275.8-6.4z"/>
		<path class="st6" d="M290-28.6c-1,0.8-1.4,1.8-2.2,2.4c-1.8,1.2-3.1,2.7-4.9,3.5c-1.4,0.6-3.1,0.6-4.5,0.8c-2,0-4.3,0-6.3,0
			c-2.4-0.2-4.9-1.2-6.9-2c-0.4-0.2-0.7-0.3-1.1-0.5c0,0,0,0,0,0c0,0.1-0.1,0.2-0.1,0.3c-0.1,0.2-0.1,0.4-0.2,0.5
			c0,0.2-0.1,0.3-0.1,0.5c0,0.2-0.1,0.3-0.1,0.5c0,0.2-0.1,0.4-0.1,0.6c0,0.1-0.1,0.3-0.1,0.4c-0.1,0.4-0.1,0.7-0.1,1.1
			c-0.4,4.9,1.4,9.9,4.7,13.5c0.4-0.9,0.9-1.7,1.5-2.5c0,0,0,0,0.1,0c0,0,0,0,0,0c0.1,0,0.1,0.1,0.2,0.1c0,0,0,0,0.1,0
			c0.1,0.1,0.2,0.1,0.3,0.2c0,0,0,0,0.1,0c0.1,0.1,0.3,0.2,0.5,0.3c0,0,0.1,0,0.1,0.1c0.2,0.1,0.4,0.2,0.6,0.3c0,0,0.1,0,0.1,0.1
			c0.2,0.1,0.4,0.2,0.7,0.3c0,0,0.1,0,0.1,0.1c0.3,0.1,0.6,0.3,0.9,0.4c0.1,0,0.1,0.1,0.2,0.1c0.3,0.1,0.7,0.3,1,0.4
			c0,0,0.1,0,0.1,0.1c0.3,0.1,0.7,0.3,1,0.4c0.1,0,0.2,0.1,0.2,0.1c6.2,2.4,16.6,5.2,29.9,4.8v-18.7c-4.8-1.5-9.5-4.4-13.5-7.4
			C291.6-28.2,290.8-29,290-28.6z"/>
		<path class="st3" d="M276.8-6c-0.4-0.1-0.7-0.3-1-0.4c-0.1,0-0.2-0.1-0.2-0.1c-0.4-0.1-0.7-0.3-1-0.4c0,0-0.1,0-0.1-0.1
			c-0.4-0.1-0.7-0.3-1-0.4c-0.1,0-0.1-0.1-0.2-0.1c-0.3-0.1-0.6-0.3-0.9-0.4c0,0-0.1,0-0.1-0.1c-0.2-0.1-0.5-0.2-0.7-0.3
			c0,0-0.1,0-0.1-0.1c-0.2-0.1-0.4-0.2-0.6-0.3c0,0-0.1,0-0.1-0.1c-0.2-0.1-0.3-0.2-0.5-0.3c0,0,0,0-0.1,0c-0.1-0.1-0.2-0.1-0.3-0.2
			c0,0,0,0-0.1,0c-0.1-0.1-0.2-0.1-0.2-0.1c0,0,0,0,0,0c0,0-0.1,0-0.1,0c-0.6,0.8-1.1,1.6-1.5,2.5c-1,2.1-1.7,4.6-1.5,6.9h14.1
			C278.5-1.7,277.4-3.7,276.8-6z"/>
		<path class="st12" d="M305.7-74.5v-1.1c0,0,0,0,0,0C305.5-75.2,305.5-74.8,305.7-74.5z"/>
		<path class="st1" d="M299.8-53.2c0.2,0.2,0.5,0.3,0.7,0.3c0.3,0,0.5-0.1,0.7-0.3l4.5-4.2v-2.8l-5.9,5.5
			C299.4-54.3,299.4-53.6,299.8-53.2z"/>
		<path class="st12" d="M304.3-84.4c0.2,0,0.5-0.1,0.7-0.3c0.4-0.4,0.4-1,0.1-1.4l-2-2.2l-5.8-6.4c-0.4-0.4-1-0.4-1.4-0.1
			c-0.4,0.4-0.4,1-0.1,1.4l5.7,6.2l2.2,2.4C303.8-84.5,304-84.4,304.3-84.4z"/>
		<path class="st1" d="M294.8-77.3l-6.5,5.8c-0.4,0.4-0.5,1-0.1,1.4c0.2,0.2,0.5,0.3,0.8,0.3c0.2,0,0.5-0.1,0.7-0.3l6.5-5.8
			c0.4-0.4,0.5-1,0.1-1.4S295.3-77.7,294.8-77.3z"/>
		<path class="st12" d="M290.9-62c-0.6,0.1-1,0.6-0.9,1.1l1.3,10.6c0.1,0.5,0.5,0.9,1,0.9c0,0,0.1,0,0.1,0c0.6-0.1,1-0.6,0.9-1.1
			L292-61.1C291.9-61.7,291.4-62.1,290.9-62z"/>
		<path class="st1" d="M281.1-47.8c-0.4-0.4-1.1-0.4-1.4,0c-0.4,0.4-0.4,1.1,0,1.4l6.3,6c0.2,0.2,0.5,0.3,0.7,0.3
			c0.3,0,0.5-0.1,0.7-0.3c0.4-0.4,0.4-1.1,0-1.4L281.1-47.8z"/>
		<path class="st12" d="M283.6-74.6c0.3,0,0.6-0.1,0.8-0.3c0.4-0.4,0.3-1.1-0.1-1.4l-4.1-3.7l-3-2.7c-0.4-0.4-1.1-0.3-1.4,0.1
			c-0.4,0.4-0.3,1.1,0.1,1.4l2.7,2.4l4.4,4C283.1-74.7,283.3-74.6,283.6-74.6z"/>
		<path class="st2" d="M91-288.3c-0.1,0-0.2,0.1-0.3,0.1c-1.9-6-4-11.9-6.5-17.6h-3.2l6.9,18.8C88.9-287.4,89.9-287.8,91-288.3z"/>
		<path class="st9" d="M122.7-193.6c-6.6-2.3-13-3.2-19.7-3.8c1,2.2,2.1,4.3,3.8,6.1c1.7,1.9,4.1,3.3,6.6,3.3c1.5,0,2.9-0.4,4.3-0.8
			c6.6-2,13.3-3.9,19.9-5.9c-3.3,1-6.5,1.9-9.8,2.9C126.2-192.5,124.4-193.1,122.7-193.6z"/>
		<path class="st10" d="M134.1-211.1c-8.4-3.9-16.8-6-25.9-8.3c-6-1.4-12.4-2.9-17.8-5.6c-0.4,2.9-0.1,6,0.9,8.8
			c1.4,4,4.3,7.5,7.9,9.8c1.2,0.8,2.6,1.5,4,1.9c3.8,1.3,7.8,1.4,11.8,1.8c7.9,0.9,15.6,4.3,22.7,7.9c2.2-2.4,3.8-5.8,4.4-9.2
			C140.2-206.9,137.6-209.4,134.1-211.1z"/>
		<path class="st10" d="M75.4-274.9c-0.1,3.3,0.7,6.8,2.1,9.6c1.5,3.1,3.9,5.7,6.6,7.9c2.1,1.6,4.4,3,6.8,4.1
			c5.5,2.6,11.5,4,17.4,5.7c5.8,1.7,11.5,3.7,16.4,7.2l0.2-0.2c1.5-4.2,1.5-8.9,0.4-13.2c-3.1-3.1-6.9-5.5-11.4-6.6
			C100.4-263.9,85-265.9,75.4-274.9z"/>
		<path class="st9" d="M111.7-270C111.7-270,111.7-270,111.7-270c-1.8-5.5-5.2-10.5-10.9-11c-5.5-0.6-10.6,1.1-15.8,3
			c3.3,1.8,7.1,2.9,10.8,3.7C101.2-273.1,106.8-272.2,111.7-270z"/>
		<path class="st9" d="M125.3-222.5c1,0.2,2,0.4,3,0.7c0,0-0.1,0-0.1,0c-3.3-6.4-8.3-11.9-15.6-13.9c-10.4-3-20.7-3.5-29.2-10.1
			c1.1,3.6,2.3,7.4,4.9,10.1c1.3,1.4,2.9,2.5,4.7,3.3c1.5,0.7,3,1.3,4.6,1.9C106.5-227.2,115.8-224.5,125.3-222.5z"/>
		<path class="st3" d="M91-288.3c0.5-0.2,1-0.4,1.5-0.6c0.2-0.1,0.5-0.2,0.7-0.3c0.7-0.3,1.5-0.5,2.2-0.7c0.4-0.1,0.7-0.2,1.1-0.3
			l-5.8-15.7h-6.5c2.5,5.7,4.6,11.6,6.5,17.6C90.8-288.2,90.9-288.2,91-288.3z"/>
		<path class="st6" d="M103.2-204.4c-1.4-0.5-2.7-1.1-4-1.9c1.1,2.7,2.7,6.5,3.6,8.5c0.1,0.1,0.1,0.3,0.2,0.4c0,0,0,0,0,0
			c6.6,0.6,13.1,1.5,19.7,3.8c1.7,0.5,3.5,1.1,5.2,1.9c3.3-1,6.5-1.9,9.8-2.9c-7.1-3.6-14.8-7-22.7-7.9
			C111-203,107-203.1,103.2-204.4z"/>
		<path class="st13" d="M132.8-220.4c-0.1-0.1-0.3-0.1-0.4-0.2c-0.3-0.1-0.7-0.3-1-0.4c-0.1,0-0.2-0.1-0.3-0.1
			c-0.4-0.1-0.9-0.3-1.3-0.4c0,0-0.1,0-0.1,0c-0.4-0.1-0.9-0.2-1.3-0.3c-1-0.2-2-0.5-3-0.7c-9.4-2-18.7-4.7-27.8-8.1
			c-1.5-0.6-3.1-1.2-4.6-1.9c-0.3,0.6-0.7,1.2-0.9,1.8c-0.1,0.2-0.2,0.4-0.3,0.7c-0.2,0.4-0.3,0.8-0.5,1.3c-0.1,0.3-0.2,0.6-0.2,0.8
			c-0.1,0.4-0.2,0.8-0.3,1.1c-0.1,0.3-0.1,0.6-0.2,0.9c0,0.3-0.1,0.6-0.2,0.9c0,0,0,0,0,0c5.4,2.7,11.7,4.2,17.8,5.6
			c9.1,2.3,17.5,4.4,25.9,8.3c3.5,1.7,6.1,4.2,8,7.2c0,0,0,0,0,0c0,0,0,0,0,0c0.1-0.4,0.1-0.8,0.2-1.2c0-0.1,0-0.1,0-0.1
			c0-0.3,0-0.6,0.1-1c0-0.1,0-0.2,0-0.3c0-0.3,0-0.5,0-0.8c0-0.1,0-0.2,0-0.3c0-0.4-0.1-0.7-0.1-1.1c-0.7-3.9-2.9-7.5-6-9.9
			c-0.7-0.5-1.3-0.9-2.1-1.3C133.6-220,133.2-220.2,132.8-220.4z"/>
		<path class="st13" d="M113.7-269.1c-0.1-0.1-0.2-0.1-0.3-0.2c-0.5-0.3-1.1-0.5-1.6-0.8c-5-2.2-10.5-3.1-15.9-4.3
			c-3.7-0.8-7.5-1.9-10.8-3.7c0,0,0,0,0,0c0,0,0,0,0,0c-0.6-0.3-1.1-0.6-1.7-1c-0.1,0-0.2-0.1-0.2-0.1c-0.5-0.3-1-0.7-1.5-1.1
			c-0.1-0.1-0.2-0.1-0.3-0.2c-0.5-0.4-1-0.8-1.4-1.3c-0.1-0.1-0.1-0.1-0.2-0.2c-0.5-0.5-0.9-1-1.3-1.5c-0.2,0.3-0.5,0.6-0.7,0.9
			c-0.1,0.1-0.2,0.2-0.2,0.4c-0.1,0.2-0.3,0.4-0.4,0.6c-0.1,0.2-0.2,0.3-0.3,0.5c-0.1,0.2-0.2,0.3-0.2,0.5c-0.1,0.2-0.2,0.4-0.2,0.6
			c-0.1,0.2-0.1,0.3-0.2,0.5c-0.1,0.2-0.1,0.5-0.2,0.7c0,0.1-0.1,0.3-0.1,0.4c-0.1,0.2-0.1,0.5-0.2,0.8c0,0.1-0.1,0.3-0.1,0.4
			c0,0.3-0.1,0.5-0.1,0.8c0,0.1,0,0.3,0,0.4c0,0.3,0,0.5-0.1,0.8c0,0.1,0,0.2,0,0.3c0,0,0,0,0,0c9.6,9,25,11,38.5,14.5
			c4.5,1.2,8.3,3.5,11.4,6.6c0,0,0,0,0,0c0-0.1-0.1-0.3-0.1-0.4c-0.1-0.5-0.2-0.9-0.4-1.4c-0.1-0.2-0.1-0.4-0.2-0.6
			c-0.1-0.4-0.3-0.8-0.5-1.2c-0.1-0.2-0.2-0.4-0.3-0.6c-0.2-0.4-0.4-0.8-0.5-1.2c-0.1-0.2-0.2-0.4-0.3-0.6c-0.2-0.4-0.4-0.7-0.6-1.1
			c-0.1-0.2-0.3-0.4-0.4-0.6c-0.2-0.3-0.5-0.7-0.7-1c-0.1-0.2-0.3-0.4-0.4-0.6c-0.3-0.3-0.5-0.6-0.8-0.9c-0.2-0.2-0.3-0.4-0.5-0.5
			c-0.3-0.3-0.6-0.6-0.9-0.9c-0.1-0.1-0.3-0.3-0.4-0.4c-0.5-0.4-1-0.9-1.5-1.2c-0.5-0.4-1-0.7-1.5-1.1
			C114.7-268.5,114.2-268.8,113.7-269.1z"/>
		<path class="st6" d="M93.2-289.1c-0.2,0.1-0.5,0.2-0.7,0.3c-0.5,0.2-1,0.4-1.5,0.6c-1,0.4-2.1,0.8-3.1,1.3
			c-3.1,1.3-6.2,2.7-9.5,3.5c0,0,0,0,0,0c0.4,0.5,0.9,1,1.3,1.5c0.1,0.1,0.1,0.1,0.2,0.2c0.4,0.4,0.9,0.9,1.4,1.3
			c0.1,0.1,0.2,0.1,0.3,0.2c0.5,0.4,1,0.8,1.5,1.1c0.1,0,0.2,0.1,0.2,0.1c0.6,0.4,1.1,0.7,1.7,1c0,0,0,0,0,0c0,0,0,0,0,0
			c5.1-1.9,10.2-3.6,15.8-3c5.7,0.5,9.1,5.5,10.9,11c0,0,0,0,0,0c0.5,0.2,1.1,0.5,1.6,0.8c0.1,0.1,0.2,0.1,0.3,0.2
			c0.5,0.3,1.1,0.6,1.6,0.9c0.5,0.3,1,0.7,1.5,1.1l0.2-0.2c0-3.1-0.2-6.2-0.6-9.3c-0.4-3.3-1.1-6.8-3.2-9.4
			c-3.7-4.7-10.7-5.4-16.6-4c-0.4,0.1-0.7,0.2-1.1,0.3C94.7-289.6,93.9-289.3,93.2-289.1z"/>
		<path class="st6" d="M90.9-253.2c-2.4-1.1-4.7-2.5-6.8-4.1l-0.2,0.3c-2.6,2.7-1.7,7.1-0.7,10.6c0.1,0.2,0.1,0.4,0.2,0.6
			c0,0,0,0,0,0c8.5,6.6,18.8,7.1,29.2,10.1c7.4,2,12.3,7.5,15.6,13.9c0,0,0.1,0,0.1,0c0.4,0.1,0.9,0.2,1.3,0.3c0,0,0.1,0,0.1,0
			c0.4,0.1,0.9,0.3,1.3,0.4c0.1,0,0.2,0.1,0.3,0.1c0.3,0.1,0.7,0.2,1,0.4c0.1,0.1,0.3,0.1,0.4,0.2c0.4,0.2,0.9,0.4,1.3,0.6
			c0.7,0.4,1.4,0.8,2.1,1.3c0.7-3-0.1-6.3-1.3-9.1c-2.1-4.9-5.5-9.3-9.8-12.5c-0.1-0.1-0.2-0.2-0.3-0.2c-4.9-3.5-10.6-5.5-16.4-7.2
			C102.4-249.2,96.5-250.6,90.9-253.2z"/>
		<path class="st2" d="M76.1-17.2c-0.6,0.9-0.8,2.1-0.4,3.2l5.2,14h3.2c-0.5-1.2-1.1-2.4-1.6-3.5C80.3-8.1,78.1-12.6,76.1-17.2z"/>
		<path class="st3" d="M79.7-19.3l-1.8,0.6c-0.2,0.1-0.4,0.2-0.6,0.3c-0.1,0-0.1,0.1-0.2,0.1c-0.1,0.1-0.2,0.2-0.3,0.2
			c-0.1,0.1-0.1,0.1-0.2,0.2c-0.1,0.1-0.2,0.2-0.2,0.3c-0.1,0.1-0.1,0.2-0.2,0.2c0,0,0,0,0,0.1c0,0,0,0,0,0c2,4.6,4.2,9.1,6.4,13.6
			c0.6,1.2,1.1,2.4,1.6,3.5h6.5l-6.3-17.1C83.7-19,81.5-20,79.7-19.3z"/>
		<path class="st8" d="M181.4-302.9l13.1,7.2c2.8,1.6,6.4,0.7,8.2-2c1.9-2.8,3.6-5.4,5.3-8.1h-31.8l0.2,0.1L181.4-302.9z"/>
		<path class="st2" d="M168.4-305.7L168.4-305.7c-0.1,0.1-0.1,0.2-0.2,0.3C168.3-305.6,168.4-305.7,168.4-305.7z"/>
		<path class="st2" d="M158-271.8c13.9,7.6,23.5-31.1,23.5-31.1l-5.1-2.8l-0.2-0.1h-1.1c-8.1,9.8-14.5,21.2-17.7,33.6
			C157.6-272,157.8-271.9,158-271.8z"/>
		<path class="st3" d="M167.8-305c-0.1,0.2-0.3,0.3-0.4,0.5c-0.1,0.2-0.3,0.3-0.4,0.5c-0.1,0.2-0.3,0.4-0.4,0.5
			c-0.2,0.2-0.3,0.4-0.5,0.6c-0.2,0.2-0.3,0.4-0.5,0.6c-0.2,0.2-0.3,0.4-0.5,0.6c-0.2,0.2-0.3,0.4-0.5,0.6c-0.2,0.2-0.3,0.4-0.5,0.6
			c-0.2,0.2-0.3,0.4-0.5,0.7c-0.2,0.2-0.3,0.4-0.5,0.7c-0.2,0.2-0.3,0.5-0.5,0.7c-0.2,0.2-0.3,0.5-0.5,0.7c-0.2,0.2-0.3,0.5-0.5,0.7
			c-0.2,0.2-0.3,0.5-0.5,0.7c-0.2,0.2-0.3,0.5-0.5,0.8c-0.2,0.2-0.3,0.5-0.5,0.7c-0.2,0.3-0.3,0.5-0.5,0.8c-0.2,0.3-0.3,0.5-0.5,0.8
			c-0.2,0.3-0.3,0.5-0.5,0.8c-0.2,0.3-0.3,0.5-0.5,0.8c-0.1,0.3-0.3,0.5-0.4,0.8c-0.1,0.3-0.3,0.5-0.4,0.8c-0.1,0.3-0.3,0.5-0.4,0.8
			c-0.1,0.3-0.3,0.5-0.4,0.8c-0.1,0.3-0.2,0.5-0.4,0.8c-0.1,0.3-0.2,0.5-0.4,0.8c-0.1,0.3-0.2,0.5-0.3,0.8c-0.1,0.3-0.2,0.5-0.3,0.8
			c-0.1,0.3-0.2,0.5-0.3,0.8c-0.1,0.3-0.2,0.5-0.3,0.8c-0.1,0.3-0.2,0.5-0.2,0.8c-0.1,0.2-0.1,0.5-0.2,0.7c-0.1,0.2-0.1,0.5-0.2,0.7
			c0,0.2-0.1,0.5-0.1,0.7c0,0.2-0.1,0.5-0.1,0.7c0,0.2-0.1,0.5-0.1,0.7c0,0.2,0,0.5,0,0.7c0,0.2,0,0.4,0,0.7c0,0.2,0,0.4,0.1,0.7
			c0,0.2,0.1,0.4,0.1,0.6c0,0.2,0.1,0.4,0.1,0.6c0.1,0.2,0.1,0.4,0.2,0.6c0.1,0.2,0.1,0.4,0.2,0.6c0.1,0.2,0.2,0.4,0.3,0.5
			c0.1,0.2,0.2,0.4,0.3,0.5c0.1,0.2,0.2,0.3,0.4,0.5c0.1,0.2,0.3,0.3,0.4,0.5c0.2,0.2,0.3,0.3,0.5,0.4c0.2,0.1,0.4,0.3,0.5,0.4
			c0.1,0.1,0.2,0.2,0.3,0.2c0,0,0,0,0,0c3.2-12.3,9.5-23.7,17.7-33.6h-6.7c-0.1,0.1-0.1,0.2-0.2,0.3
			C168.1-305.3,168-305.2,167.8-305z"/>
		<path class="st10" d="M170.2-42.7c3.5,0.5,4.7-3.9,7.5-5.6c2.1-1.3,4.6-0.9,6.5,0.6c0,0,0,0-0.1,0c0.8,0,1.6,0.2,2.2,0.7
			c1.4,1.2,1.3,3.4,0.5,5c-0.1,0.3-0.3,0.6-0.5,0.8c0.1-0.1,0.2-0.3,0.3-0.4c-0.3,3.9-2,8.7,1.2,11.4c0.6-0.6,1.1-1.3,1.5-2
			c1-1.8,1.7-3.9,3.5-4.9c1.9-1.2,4.5-0.7,6.4,0.4c1.2,0.7,2.3,1.7,2.7,3c0.1,0.4,0.2,0.9,0.1,1.3c0,0,0-0.1,0-0.1
			c0.7,1.2,0.8,3,0.4,4.3c-2.7,6.7-13.5,16.1-4.9,21.3c0.8,0.4,1.7,0.6,2.7,0.5c3.8-5.1,4.7-11.9,8.5-17.1c1-1.3,2.2-2.5,3.8-2.8
			c0.7-0.1,1.4,0,1.9,0.4c1.1,1,0.2,2.7-0.5,4.1c-0.2,0.3-0.3,0.7-0.4,1c1.4,1.7,3.7,2.7,5.6,2.4c1.7-0.3,3.2-1,4.4-2c0,0,0,0,0,0
			c0.1-0.2,0.1-0.3,0.2-0.5c18.1-35.9,14.7-53.8,9.4-62.2c-12.8-2.1-26.3,2.4-38.5,7.9c-5.7,2.7-10.4,5.7-15,9.5
			c-1.1,0.8-2.1,1.7-3.1,2.6c-2.5,3.5-5,7.5-7.7,11.9c-1.1,1.9-2,3.7-2.4,5.5C167-44,168.2-42.8,170.2-42.7z"/>
		<path class="st8" d="M213.3-17.3c-0.1-0.3-0.1-0.5-0.2-0.8c0-0.1,0-0.1,0-0.2c0-0.3,0-0.5,0-0.8c0,0,0,0,0-0.1
			c0-0.3,0-0.5,0.1-0.8c0,0,0-0.1,0-0.1c0.1-0.3,0.1-0.5,0.2-0.8c0,0,0,0,0,0c0,0,0,0,0,0c0.1-0.3,0.2-0.7,0.4-1
			c0.6-1.3,1.5-3.1,0.5-4.1c-0.5-0.5-1.2-0.5-1.9-0.4c-1.6,0.3-2.8,1.5-3.8,2.8c-3.8,5.1-4.7,12-8.5,17.1c0,0,0,0,0,0
			c-0.1,0.1-0.2,0.2-0.3,0.3c-0.6,0.8-1.4,1.6-2.3,2c-2,0.9-4.6-0.2-5.8-2c-1.2-1.9-1.2-4.3-0.6-6.4c0.6-2.1,1.8-4,3-5.9
			c2-3.2,4-6.4,6.1-9.6c0.1-0.2,0.2-0.4,0.4-0.6c0-0.1,0.1-0.1,0.1-0.2c0.1-0.1,0.1-0.3,0.2-0.4c0-0.1,0.1-0.2,0.1-0.3
			c0.1-0.1,0.1-0.2,0.2-0.4c0-0.1,0.1-0.2,0.1-0.3c0.1-0.2,0.1-0.3,0.2-0.5c0-0.1,0.1-0.2,0.1-0.4c0-0.1,0.1-0.3,0.1-0.4
			c0-0.1,0-0.2,0.1-0.3c0-0.1,0-0.2,0.1-0.3c0-0.1,0-0.2,0-0.3c0-0.4,0-0.9-0.1-1.3c-0.4-1.3-1.5-2.3-2.7-3c-2-1.1-4.5-1.6-6.4-0.4
			c-1.7,1.1-2.5,3.1-3.5,4.9c-0.4,0.7-0.9,1.4-1.5,2c0,0,0,0,0,0c-0.1,0.1-0.2,0.2-0.4,0.4c-0.1,0-0.1,0.1-0.2,0.1
			c-0.1,0.1-0.3,0.2-0.4,0.3c0,0-0.1,0-0.1,0.1c-0.2,0.1-0.4,0.2-0.5,0.3c0,0-0.1,0-0.1,0.1c-0.2,0.1-0.4,0.1-0.6,0.2
			c0,0-0.1,0-0.1,0c-0.2,0-0.4,0-0.7,0c-1.9-0.1-3.2-2-3.3-3.9c-0.1-1.9,0.9-3.6,2.1-5c0.3-0.4,0.7-0.8,1-1.2
			c0.2-0.2,0.4-0.5,0.6-0.7c0.1-0.1,0.2-0.3,0.4-0.4c0.2-0.2,0.3-0.4,0.5-0.6c0.1-0.2,0.2-0.3,0.3-0.5c0.2-0.3,0.4-0.5,0.5-0.8
			c0.8-1.6,0.9-3.8-0.5-5c-0.6-0.5-1.4-0.7-2.2-0.7c-0.1,0-0.3,0-0.4,0c0,0-0.1,0-0.1,0c-0.4,0.1-0.7,0.2-1.1,0.3c0,0-0.1,0-0.1,0
			c-0.1,0.1-0.3,0.1-0.4,0.2c0,0-0.1,0-0.1,0.1c-0.3,0.2-0.7,0.4-1,0.6c0,0-0.1,0.1-0.1,0.1c-0.1,0.1-0.2,0.2-0.4,0.3
			c0,0-0.1,0.1-0.1,0.1c-0.1,0.1-0.3,0.2-0.4,0.4c-0.4,0.4-0.8,0.8-1.2,1.1c-6.3,8.1-11,17.5-14.6,27.3c-1.1,3-1.8,6.1-2.6,9.1
			l-3.1-1.7l12.7,7l5.3,2.9H208c3.2-5,6-9.6,8.5-14C214.9-14.6,213.7-15.7,213.3-17.3z"/>
		<path class="st2" d="M168.4,0L168.4,0c0-0.1,0.1-0.1,0.2-0.2C168.5-0.1,168.5-0.1,168.4,0z"/>
		<path class="st2" d="M175.4-0.4c-0.1,0.1-0.2,0.3-0.3,0.4h1.1l-5.3-2.9L175.4-0.4z"/>
		<path class="st13" d="M173.8-39c0.9-0.6,1.4-1.6,2.1-2.4c0.4-0.5,0.7-1,1.1-1.5c0.1-0.1,0.2-0.2,0.3-0.3c0.4-0.4,0.7-0.8,1.1-1.2
			c0,0,0.1-0.1,0.1-0.1c0,0,0,0,0,0c0.4-0.4,0.8-0.8,1.2-1.1c0.1-0.1,0.3-0.2,0.4-0.4c0,0,0.1-0.1,0.1-0.1c0.1-0.1,0.2-0.2,0.4-0.3
			c0,0,0.1-0.1,0.1-0.1c0.3-0.2,0.7-0.4,1-0.6c0,0,0.1,0,0.1-0.1c0.1-0.1,0.3-0.1,0.4-0.2c0,0,0.1,0,0.1,0c0.4-0.1,0.7-0.2,1.1-0.3
			c0,0,0.1,0,0.1,0c0.1,0,0.3,0,0.4,0c0,0,0,0,0.1,0c-1.9-1.4-4.4-1.9-6.5-0.6c-2.8,1.7-4.1,6.1-7.5,5.6c-1.9-0.1-3.1-1.3-3.8-3
			c0,0,0,0,0,0c0,0,0,0,0,0c0,0.1,0,0.1,0,0.2c0,0.3-0.1,0.5-0.1,0.8c0,0.1,0,0.2,0,0.3c0,0.2,0,0.5,0,0.7c0,0.1,0,0.2,0,0.3
			c0,0.3,0.1,0.7,0.2,1c0.1,0.3,0.2,0.6,0.4,0.9C168.1-38.9,171.5-37.3,173.8-39z"/>
		<path class="st13" d="M186.6-41.7c-0.1,0.1-0.2,0.3-0.3,0.4c-0.1,0.2-0.2,0.3-0.3,0.5c-0.2,0.2-0.3,0.4-0.5,0.6
			c-0.1,0.1-0.2,0.3-0.4,0.4c-0.2,0.2-0.4,0.5-0.6,0.7c-0.4,0.4-0.7,0.8-1,1.2c-1.2,1.4-2.1,3.2-2.1,5c0.1,1.9,1.4,3.8,3.3,3.9
			c0.2,0,0.5,0,0.7,0c0,0,0.1,0,0.1,0c0.2,0,0.4-0.1,0.6-0.2c0,0,0.1,0,0.1-0.1c0.2-0.1,0.4-0.2,0.5-0.3c0,0,0.1,0,0.1-0.1
			c0.2-0.1,0.3-0.2,0.4-0.3c0.1,0,0.1-0.1,0.2-0.1c0.1-0.1,0.3-0.2,0.4-0.4c0,0,0,0,0,0C184.5-32.9,186.3-37.8,186.6-41.7z"/>
		<path class="st13" d="M197.4-7c-8.6-5.2,2.2-14.6,4.9-21.3c0.4-1.3,0.3-3.1-0.4-4.3c0,0,0,0.1,0,0.1c0,0.1,0,0.2,0,0.3
			c0,0.1,0,0.2-0.1,0.3c0,0.1,0,0.2-0.1,0.3c0,0.1-0.1,0.3-0.1,0.4c0,0.1-0.1,0.2-0.1,0.4c-0.1,0.2-0.1,0.3-0.2,0.5
			c0,0.1-0.1,0.2-0.1,0.3c-0.1,0.1-0.1,0.2-0.2,0.4c0,0.1-0.1,0.2-0.1,0.3c-0.1,0.1-0.1,0.3-0.2,0.4c0,0.1-0.1,0.1-0.1,0.2
			c-0.1,0.2-0.2,0.4-0.4,0.6c-2,3.2-4,6.4-6.1,9.6c-1.2,1.9-2.4,3.8-3,5.9c-0.6,2.1-0.6,4.6,0.6,6.4c1.2,1.9,3.7,2.9,5.8,2
			c0.9-0.4,1.7-1.2,2.3-2c0.1-0.1,0.2-0.2,0.3-0.3c0,0,0,0,0,0C199.1-6.5,198.2-6.6,197.4-7z"/>
		<path class="st13" d="M194.5-75.2c12.2-5.6,25.7-10,38.5-7.9c0,0,0,0,0,0c0,0,0-0.1-0.1-0.1c-0.2-0.3-0.4-0.6-0.6-0.8c0,0,0,0,0,0
			c-0.2-0.3-0.4-0.5-0.5-0.7c0-0.1-0.1-0.1-0.1-0.2c-0.2-0.2-0.4-0.5-0.6-0.7c0,0,0,0-0.1-0.1c-0.2-0.2-0.3-0.4-0.5-0.6
			c0,0-0.1-0.1-0.1-0.1c-0.2-0.2-0.4-0.4-0.5-0.6c0,0-0.1-0.1-0.1-0.1c-0.2-0.2-0.3-0.3-0.5-0.4c0,0-0.1-0.1-0.1-0.1
			c-0.2-0.2-0.3-0.3-0.5-0.4c0,0-0.1,0-0.1-0.1c-0.1-0.1-0.3-0.2-0.4-0.3c0,0-0.1,0-0.1-0.1c-0.2-0.1-0.3-0.2-0.4-0.3
			c0,0-0.1,0-0.1-0.1c-0.1-0.1-0.2-0.2-0.4-0.2c0,0,0,0-0.1,0c-0.1-0.1-0.2-0.2-0.4-0.2c0,0-0.1,0-0.1,0c-0.1-0.1-0.2-0.1-0.3-0.2
			c0,0,0,0,0,0c-0.1-0.1-0.2-0.1-0.3-0.1c0,0,0,0-0.1,0c-0.1,0-0.1-0.1-0.2-0.1c0,0,0,0,0,0c-0.1,0-0.1,0-0.1-0.1c0,0,0,0,0,0
			c0,0,0,0,0,0s0,0,0,0c0,0,0,0,0,0c0,0,0,0,0,0c0,0,0,0,0,0c0,0,0,0,0,0c0,0,0,0-0.1,0c0,0,0,0-0.1,0c0,0-0.1,0-0.1,0
			c0,0,0,0-0.1,0c0,0-0.1,0-0.1-0.1c0,0-0.1,0-0.1,0c0,0-0.1,0-0.1-0.1c0,0-0.1,0-0.1-0.1c0,0-0.1,0-0.1-0.1c0,0-0.1,0-0.1-0.1
			c0,0-0.1,0-0.1-0.1c0,0-0.1,0-0.1-0.1c-0.1,0-0.1-0.1-0.2-0.1c0,0-0.1,0-0.1-0.1c-0.1,0-0.1-0.1-0.2-0.1c0,0-0.1,0-0.1-0.1
			c-0.1,0-0.2-0.1-0.4-0.1c0,0-0.1,0-0.1,0c-0.1,0-0.2-0.1-0.3-0.1c-0.1,0-0.1,0-0.2-0.1c-0.1,0-0.2-0.1-0.2-0.1
			c-0.1,0-0.1,0-0.2-0.1c-0.1,0-0.2,0-0.2-0.1c-0.1,0-0.1,0-0.2-0.1c-0.1,0-0.2,0-0.3-0.1c-0.1,0-0.2,0-0.2-0.1
			c-0.1,0-0.2,0-0.3-0.1c-0.1,0-0.2,0-0.2-0.1c-0.1,0-0.2,0-0.3-0.1c-0.1,0-0.2,0-0.3-0.1c-0.1,0-0.2,0-0.3-0.1c-0.1,0-0.2,0-0.3,0
			c-0.1,0-0.2,0-0.3,0c-0.1,0-0.2,0-0.3,0c-0.1,0-0.2,0-0.3,0c-0.1,0-0.2,0-0.3,0c-0.1,0-0.2,0-0.3,0c-0.1,0-0.2,0-0.3,0
			c-0.1,0-0.3,0-0.4,0c-0.1,0-0.2,0-0.3,0c-0.2,0-0.4,0-0.7,0c-0.1,0-0.2,0-0.3,0c-0.1,0-0.3,0-0.4,0c-0.1,0-0.2,0-0.3,0
			c-0.1,0-0.3,0-0.4,0c-0.1,0-0.2,0-0.4,0c-0.1,0-0.3,0-0.4,0c-0.1,0-0.3,0-0.4,0c-0.1,0-0.3,0-0.4,0c-0.1,0-0.3,0-0.4,0.1
			c-0.1,0-0.3,0-0.4,0.1c-0.1,0-0.3,0-0.4,0.1c-0.1,0-0.3,0.1-0.4,0.1c-0.1,0-0.3,0.1-0.4,0.1c-0.1,0-0.3,0.1-0.4,0.1
			c-0.1,0-0.3,0.1-0.4,0.1c-0.2,0-0.3,0.1-0.5,0.1c-0.1,0-0.3,0.1-0.4,0.1c-0.2,0-0.3,0.1-0.5,0.1c-0.1,0-0.3,0.1-0.4,0.1
			c-0.2,0.1-0.3,0.1-0.5,0.2c-0.1,0-0.3,0.1-0.4,0.1c-0.2,0.1-0.4,0.1-0.6,0.2c-0.2,0.1-0.4,0.1-0.6,0.2c-0.2,0.1-0.5,0.2-0.7,0.3
			c-0.1,0.1-0.3,0.1-0.4,0.2c-0.2,0.1-0.4,0.2-0.6,0.3c-0.2,0.1-0.3,0.1-0.5,0.2c-0.2,0.1-0.4,0.2-0.6,0.3c-0.2,0.1-0.3,0.2-0.5,0.3
			c-0.2,0.1-0.4,0.2-0.5,0.3c-0.2,0.1-0.3,0.2-0.5,0.3c-0.2,0.1-0.4,0.2-0.6,0.3c-0.2,0.1-0.4,0.2-0.5,0.3c-0.2,0.1-0.4,0.2-0.6,0.3
			c-0.2,0.1-0.4,0.2-0.5,0.3c-0.2,0.1-0.4,0.2-0.6,0.4c-0.2,0.1-0.4,0.2-0.5,0.4c-0.2,0.1-0.4,0.3-0.6,0.4c-0.2,0.1-0.4,0.3-0.6,0.4
			c-0.2,0.1-0.4,0.3-0.6,0.4c-0.2,0.1-0.4,0.3-0.6,0.4c-0.2,0.2-0.4,0.3-0.6,0.5c-0.2,0.1-0.4,0.3-0.6,0.4c-0.2,0.2-0.4,0.4-0.7,0.5
			c-0.2,0.1-0.3,0.3-0.5,0.4c-0.3,0.3-0.7,0.5-1,0.8c-0.2,0.2-0.4,0.4-0.6,0.5c-0.3,0.2-0.6,0.5-0.8,0.7c-0.2,0.2-0.4,0.3-0.5,0.5
			c-0.2,0.2-0.5,0.4-0.7,0.7c-0.2,0.2-0.4,0.4-0.6,0.6c-0.2,0.2-0.5,0.4-0.7,0.7c-0.2,0.2-0.4,0.4-0.6,0.6c-0.2,0.2-0.5,0.5-0.7,0.7
			c-0.2,0.2-0.4,0.4-0.6,0.6c-0.2,0.2-0.5,0.5-0.7,0.7c-0.2,0.2-0.4,0.5-0.6,0.7c-0.2,0.3-0.5,0.5-0.7,0.8c-0.2,0.2-0.4,0.5-0.6,0.7
			c-0.2,0.3-0.5,0.5-0.7,0.8c-0.2,0.2-0.4,0.5-0.6,0.8c-0.2,0.3-0.5,0.6-0.7,0.9c-0.2,0.3-0.4,0.5-0.6,0.8c-0.2,0.3-0.5,0.6-0.7,0.9
			c-0.2,0.3-0.4,0.5-0.6,0.8c-0.3,0.3-0.5,0.7-0.8,1c-0.2,0.3-0.4,0.5-0.6,0.8c-0.3,0.4-0.6,0.8-0.9,1.2c-0.2,0.2-0.3,0.5-0.5,0.7
			c-0.5,0.6-0.9,1.3-1.4,1.9c0,0,0,0,0,0c1-0.9,2-1.8,3.1-2.6C184.2-69.5,188.8-72.5,194.5-75.2z"/>
		<path class="st13" d="M219-18.5c-2,0.2-4.2-0.8-5.6-2.4c0,0,0,0,0,0c0,0,0,0,0,0c-0.1,0.3-0.1,0.5-0.2,0.8c0,0,0,0.1,0,0.1
			c0,0.3-0.1,0.5-0.1,0.8c0,0,0,0,0,0.1c0,0.3,0,0.5,0,0.8c0,0.1,0,0.1,0,0.2c0,0.3,0.1,0.5,0.2,0.8c0.5,1.6,1.7,2.7,3.2,3.2
			c0.2,0.1,0.4,0.1,0.7,0.2c0.2,0,0.4,0.1,0.6,0.1c0.1,0,0.1,0,0.2,0c0.1,0,0.3,0,0.4,0c0.1,0,0.1,0,0.2-0.1c0.1,0,0.2-0.1,0.3-0.1
			c0.1,0,0.1-0.1,0.2-0.1c0.1,0,0.2-0.1,0.3-0.2c0.1,0,0.1-0.1,0.2-0.2c0.1-0.1,0.2-0.1,0.3-0.2c0.1-0.1,0.1-0.1,0.2-0.2
			c0.1-0.1,0.2-0.2,0.3-0.2c0.1-0.1,0.1-0.1,0.2-0.2c0.1-0.1,0.2-0.2,0.2-0.3c0.1-0.1,0.1-0.2,0.2-0.2c0.1-0.1,0.1-0.2,0.2-0.3
			c0.1-0.1,0.1-0.2,0.2-0.3c0.1-0.1,0.1-0.2,0.2-0.3c0.1-0.1,0.1-0.2,0.2-0.3c0.1-0.1,0.1-0.2,0.2-0.3c0-0.1,0.1-0.2,0.1-0.3
			c0.1-0.1,0.1-0.2,0.2-0.4c0-0.1,0.1-0.2,0.1-0.3c0.1-0.1,0.1-0.3,0.2-0.4c0-0.1,0.1-0.2,0.1-0.2c0.1-0.1,0.1-0.3,0.2-0.4
			c0-0.1,0.1-0.1,0.1-0.2c0.2-0.4,0.3-0.8,0.5-1.1c0,0,0,0,0,0C222.2-19.5,220.8-18.8,219-18.5z"/>
		<path class="st12" d="M163.9-17.3c3.6-9.8,8.3-19.2,14.6-27.3c0,0,0,0,0,0c0,0-0.1,0.1-0.1,0.1c-0.4,0.4-0.8,0.8-1.1,1.2
			c-0.1,0.1-0.2,0.2-0.3,0.3c-0.4,0.5-0.8,1-1.1,1.5c-0.6,0.9-1.2,1.8-2.1,2.4c-2.3,1.6-5.7,0.1-7-2.4c-3.7,6.8-7.4,14.7-11.3,23.6
			c-1.3,3-0.1,6.4,2.7,8l3.1,1.7C162.1-11.2,162.8-14.3,163.9-17.3z"/>
		<path class="st3" d="M170.9-2.9c0,0-0.1,0.1-0.3,0.3c0,0-0.1,0.1-0.1,0.1c-0.1,0.1-0.2,0.2-0.3,0.3c0,0-0.1,0.1-0.1,0.2
			c-0.1,0.1-0.2,0.2-0.3,0.4c-0.1,0.1-0.2,0.2-0.3,0.3c-0.1,0.1-0.2,0.2-0.3,0.4c-0.1,0.1-0.2,0.2-0.3,0.4c-0.1,0.1-0.2,0.3-0.4,0.4
			c0,0.1-0.1,0.1-0.2,0.2h6.7c0.1-0.1,0.2-0.3,0.3-0.4L170.9-2.9z"/>
		<path class="st9" d="M54-270.2c0.2,0.3,0.5,0.5,0.9,0.5c0.2,0,0.4-0.1,0.6-0.2c0.5-0.3,0.6-1,0.3-1.5L46.8-284
			c-0.3-0.5-1-0.6-1.5-0.3c-0.5,0.3-0.6,1-0.3,1.5L54-270.2z"/>
		<path class="st9" d="M217.6-286.1c0.2,0.1,0.4,0.2,0.6,0.2c0.4,0,0.7-0.2,0.9-0.5l5.2-7.9c0.3-0.5,0.2-1.2-0.3-1.5
			c-0.5-0.3-1.2-0.2-1.5,0.3l-5.2,7.9C217-287.1,217.1-286.4,217.6-286.1z"/>
		<path class="st9" d="M287.1-239.6c0.2,0.2,0.5,0.4,0.8,0.4c0.3,0,0.5-0.1,0.7-0.3l8.6-7.5c0.4-0.4,0.5-1.1,0.1-1.5
			c-0.4-0.5-1.1-0.5-1.5-0.1l-8.6,7.5C286.8-240.8,286.8-240.1,287.1-239.6z"/>
		<path class="st9" d="M282.7-130.4c-0.3,0.5-0.2,1.2,0.3,1.5l11.9,7.9c0.2,0.1,0.4,0.2,0.6,0.2c0.3,0,0.7-0.2,0.9-0.5
			c0.3-0.5,0.2-1.2-0.3-1.5l-11.9-7.9C283.7-131.1,283-130.9,282.7-130.4z"/>
		<path class="st9" d="M164.1-233.4c-0.5,0.3-0.7,1-0.3,1.5l6.8,10.8c0.2,0.3,0.6,0.5,0.9,0.5c0.2,0,0.4-0.1,0.6-0.2
			c0.5-0.3,0.7-1,0.3-1.5l-6.8-10.8C165.3-233.5,164.6-233.7,164.1-233.4z"/>
		<path class="st9" d="M204-167.8l-10.2,10.6c-0.4,0.4-0.4,1.1,0,1.5c0.2,0.2,0.5,0.3,0.7,0.3c0.3,0,0.6-0.1,0.8-0.3l10.2-10.6
			c0.4-0.4,0.4-1.1,0-1.5C205-168.2,204.4-168.2,204-167.8z"/>
		<path class="st9" d="M164-166.2c0.2,0.2,0.5,0.3,0.7,0.3c0.3,0,0.6-0.1,0.8-0.4c0.4-0.4,0.4-1.1-0.1-1.5l-15.2-13.7
			c-0.4-0.4-1.1-0.4-1.5,0.1c-0.4,0.4-0.4,1.1,0.1,1.5L164-166.2z"/>
		<path class="st9" d="M74.8-163.1c0.2,0.1,0.4,0.2,0.6,0.2c0.4,0,0.7-0.2,0.9-0.5l7.8-12.6c0.3-0.5,0.2-1.2-0.4-1.5
			c-0.5-0.3-1.2-0.2-1.5,0.4l-7.8,12.6C74.2-164.1,74.3-163.4,74.8-163.1z"/>
		<path class="st9" d="M126.3-33.7l-12.9-2.6c-0.6-0.1-1.2,0.3-1.3,0.8c-0.1,0.6,0.3,1.2,0.8,1.3l12.9,2.6c0.1,0,0.1,0,0.2,0
			c0.5,0,1-0.4,1.1-0.9C127.2-33,126.9-33.6,126.3-33.7z"/>
		<path class="st9" d="M154.3-93.4c-0.6-0.2-1.2,0.2-1.3,0.7l-4.4,14.7c-0.2,0.6,0.1,1.2,0.7,1.3c0.1,0,0.2,0,0.3,0
			c0.5,0,0.9-0.3,1-0.8l4.4-14.7C155.2-92.7,154.8-93.3,154.3-93.4z"/>
		<path class="st9" d="M251.1-33.7c-0.6,0-1.1,0.5-1.1,1.1v9.9c0,0.6,0.5,1.1,1.1,1.1c0.6,0,1.1-0.5,1.1-1.1v-9.9
			C252.2-33.2,251.7-33.7,251.1-33.7z"/>
		<path class="st9" d="M17.2-130.4c-0.3-0.5-0.9-0.7-1.5-0.4c-0.5,0.3-0.7,0.9-0.4,1.5l6.5,12.1c0.2,0.4,0.6,0.6,1,0.6
			c0.2,0,0.3,0,0.5-0.1c0.5-0.3,0.7-0.9,0.4-1.5L17.2-130.4z"/>
		<path class="st9" d="M57.1-50.1c-0.5-0.2-1.2,0-1.4,0.5l-6.2,13.8c-0.2,0.5,0,1.2,0.5,1.4c0.1,0.1,0.3,0.1,0.4,0.1
			c0.4,0,0.8-0.2,1-0.6l6.2-13.8C57.9-49.2,57.6-49.9,57.1-50.1z"/>
		<path class="st9" d="M71.1-127.9c0.2-0.6,0-1.2-0.6-1.4L59.1-134c-0.5-0.2-1.2,0-1.4,0.6c-0.2,0.6,0,1.2,0.6,1.4l11.4,4.7
			c0.1,0.1,0.3,0.1,0.4,0.1C70.6-127.3,71-127.5,71.1-127.9z"/>
		<path class="st8" d="M18.6-224.2c0.2,0.3,0.5,0.5,0.9,0.5c0.2,0,0.4-0.1,0.6-0.2c0.5-0.3,0.6-1,0.3-1.5l-5.1-7.6
			c-0.3-0.5-1-0.6-1.5-0.3c-0.5,0.3-0.6,1-0.3,1.5L18.6-224.2z"/>
		<path class="st8" d="M24.7-202.4c0-0.6-0.5-1.1-1.1-1l-14.9,0.6c-0.6,0-1.1,0.5-1,1.1c0,0.6,0.5,1,1.1,1c0,0,0,0,0,0l14.9-0.6
			C24.2-201.3,24.7-201.8,24.7-202.4z"/>
		<path class="st8" d="M131.5-293.1c-0.2-0.6-0.8-0.9-1.3-0.7c-0.6,0.2-0.9,0.8-0.7,1.3l4.3,13.9c0.1,0.5,0.6,0.8,1,0.8
			c0.1,0,0.2,0,0.3,0c0.6-0.2,0.9-0.8,0.7-1.3L131.5-293.1z"/>
		<path class="st8" d="M253.2-291.8c-0.5-0.3-1.2-0.1-1.5,0.4l-7.3,12c-0.3,0.5-0.1,1.2,0.4,1.5c0.2,0.1,0.4,0.2,0.6,0.2
			c0.4,0,0.7-0.2,0.9-0.5l7.3-12C253.9-290.9,253.7-291.5,253.2-291.8z"/>
		<path class="st8" d="M191.5-192.4c-0.4-0.5-1.1-0.5-1.5-0.1l-9.3,8.1c-0.5,0.4-0.5,1.1-0.1,1.5c0.2,0.2,0.5,0.4,0.8,0.4
			c0.3,0,0.5-0.1,0.7-0.3l9.3-8.1C191.9-191.3,191.9-192,191.5-192.4z"/>
		<path class="st8" d="M255.9-117.2c0.2,0.3,0.6,0.5,0.9,0.5c0.2,0,0.4,0,0.6-0.2c0.5-0.3,0.7-1,0.4-1.5l-7.8-12.9
			c-0.3-0.5-1-0.7-1.5-0.4c-0.5,0.3-0.7,1-0.4,1.5L255.9-117.2z"/>
		<path class="st8" d="M176.1-118.3c-0.3-0.5-0.9-0.7-1.5-0.4c-0.5,0.3-0.7,0.9-0.4,1.5l6.3,11.8c0.2,0.4,0.6,0.6,1,0.6
			c0.2,0,0.3,0,0.5-0.1c0.5-0.3,0.7-0.9,0.4-1.5L176.1-118.3z"/>
		<path class="st8" d="M252.4-84.1c0.2,0.1,0.3,0.1,0.5,0.1c0.4,0,0.8-0.2,1-0.6l6.6-12.8c0.3-0.5,0.1-1.2-0.5-1.5
			c-0.5-0.3-1.2-0.1-1.5,0.5L252-85.6C251.7-85,251.9-84.4,252.4-84.1z"/>
		<path class="st8" d="M196.6-256.3c0.4,0,0.8-0.2,1-0.7c0.2-0.5,0-1.2-0.6-1.4l-10.6-4.5c-0.5-0.2-1.2,0-1.4,0.6
			c-0.2,0.5,0,1.2,0.6,1.4l10.6,4.5C196.4-256.3,196.5-256.3,196.6-256.3z"/>
		<path class="st8" d="M265.7-254.7l-10.1,7c-0.5,0.3-0.6,1-0.3,1.5c0.2,0.3,0.5,0.5,0.9,0.5c0.2,0,0.4-0.1,0.6-0.2l10.1-7
			c0.5-0.3,0.6-1,0.3-1.5C266.9-254.9,266.2-255,265.7-254.7z"/>
		<path class="st8" d="M50.8-157.5c-0.6-0.2-1.2,0.1-1.4,0.6c-0.2,0.6,0.1,1.2,0.6,1.4l14,5.2c0.1,0,0.3,0.1,0.4,0.1
			c0.4,0,0.8-0.3,1-0.7c0.2-0.6-0.1-1.2-0.6-1.4L50.8-157.5z"/>
		<path class="st10" d="M144.7-29.4L136.2-18c-0.4,0.5-0.3,1.2,0.2,1.5c0.2,0.1,0.4,0.2,0.6,0.2c0.3,0,0.7-0.1,0.9-0.4l8.5-11.4
			c0.4-0.5,0.3-1.2-0.2-1.5C145.8-29.9,145.1-29.8,144.7-29.4z"/>
		<path class="st10" d="M54.5-17.8c-0.2-0.6-0.9-0.8-1.4-0.6c-0.5,0.2-0.8,0.9-0.6,1.4l3.9,9.2c0.2,0.4,0.6,0.7,1,0.7
			c0.1,0,0.3,0,0.4-0.1c0.5-0.2,0.8-0.9,0.6-1.4L54.5-17.8z"/>
		<path class="st10" d="M20-106.9l-10.8-5.9c-0.5-0.3-1.2-0.1-1.5,0.4c-0.3,0.5-0.1,1.2,0.4,1.5l10.8,5.9c0.2,0.1,0.3,0.1,0.5,0.1
			c0.4,0,0.8-0.2,0.9-0.6C20.7-106,20.5-106.7,20-106.9z"/>
		<path class="st10" d="M64.4-284.8c0.3,0,0.6-0.1,0.8-0.4l5.7-6.9c0.4-0.5,0.3-1.1-0.1-1.5c-0.5-0.4-1.1-0.3-1.5,0.1l-5.7,6.9
			c-0.4,0.5-0.3,1.1,0.1,1.5C64-284.9,64.2-284.8,64.4-284.8z"/>
		<path class="st10" d="M148-259c0.2-0.5,0-1.2-0.6-1.4c-0.5-0.2-1.2,0-1.4,0.6l-5.7,13.2c-0.2,0.5,0,1.2,0.6,1.4
			c0.1,0.1,0.3,0.1,0.4,0.1c0.4,0,0.8-0.2,1-0.7L148-259z"/>
		<path class="st10" d="M209.2-273c-0.5-0.3-1.2-0.2-1.5,0.3c-0.3,0.5-0.2,1.2,0.3,1.5l14.8,10.3c0.2,0.1,0.4,0.2,0.6,0.2
			c0.3,0,0.7-0.2,0.9-0.5c0.3-0.5,0.2-1.2-0.3-1.5L209.2-273z"/>
		<path class="st10" d="M266.9-285.8c-0.5-0.3-1.2-0.1-1.5,0.4l-5.1,8.7c-0.3,0.5-0.1,1.2,0.4,1.5c0.2,0.1,0.4,0.1,0.5,0.1
			c0.4,0,0.7-0.2,0.9-0.5l5.1-8.7C267.5-284.9,267.4-285.6,266.9-285.8z"/>
		<path class="st10" d="M287.1-219.1c-0.3,0.5-0.2,1.2,0.3,1.5l11.6,7.6c0.2,0.1,0.4,0.2,0.6,0.2c0.4,0,0.7-0.2,0.9-0.5
			c0.3-0.5,0.2-1.2-0.3-1.5l-11.6-7.6C288.1-219.7,287.4-219.6,287.1-219.1z"/>
		<path class="st10" d="M213.6-244.8l-9.7,11.6c-0.4,0.5-0.3,1.1,0.1,1.5c0.2,0.2,0.4,0.2,0.7,0.2c0.3,0,0.6-0.1,0.8-0.4l9.7-11.6
			c0.4-0.5,0.3-1.1-0.1-1.5C214.6-245.3,213.9-245.2,213.6-244.8z"/>
		<path class="st10" d="M161.1-199.3c0.2,0.5,0.6,0.7,1,0.7c0.1,0,0.2,0,0.3-0.1c0.6-0.2,0.9-0.8,0.7-1.4l-5-15
			c-0.2-0.6-0.8-0.9-1.4-0.7c-0.6,0.2-0.9,0.8-0.7,1.4L161.1-199.3z"/>
		<path class="st10" d="M34.1-262.9c-0.6-0.1-1.1,0.3-1.3,0.9l-3.3,17.8c-0.1,0.6,0.3,1.1,0.9,1.3c0.1,0,0.1,0,0.2,0
			c0.5,0,1-0.4,1.1-0.9l3.3-17.8C35-262.3,34.6-262.8,34.1-262.9z"/>
		<path class="st10" d="M183.3-164.6l-9,12.8c-0.3,0.5-0.2,1.2,0.3,1.5c0.2,0.1,0.4,0.2,0.6,0.2c0.3,0,0.7-0.2,0.9-0.5l9-12.8
			c0.3-0.5,0.2-1.2-0.3-1.5C184.3-165.2,183.6-165.1,183.3-164.6z"/>
		<path class="st10" d="M169.1-98.3c-0.3-0.5-0.9-0.8-1.4-0.5c-0.5,0.3-0.8,0.9-0.5,1.4l7.1,14.8c0.2,0.4,0.6,0.6,1,0.6
			c0.2,0,0.3,0,0.5-0.1c0.5-0.3,0.8-0.9,0.5-1.4L169.1-98.3z"/>
		<path class="st10" d="M237.1-104.9l13.8,1.8c0,0,0.1,0,0.1,0c0.5,0,1-0.4,1.1-0.9c0.1-0.6-0.3-1.1-0.9-1.2l-13.8-1.8
			c-0.6-0.1-1.1,0.3-1.2,0.9C236.1-105.5,236.5-105,237.1-104.9z"/>
		<path class="st10" d="M278.4-105.6c0.2,0.5,0.6,0.7,1,0.7c0.1,0,0.2,0,0.3-0.1c0.6-0.2,0.9-0.8,0.7-1.4l-4-11.8
			c-0.2-0.6-0.8-0.9-1.4-0.7c-0.6,0.2-0.9,0.8-0.7,1.4L278.4-105.6z"/>
		<path class="st10" d="M220.6-134.7c0.2,0,0.4-0.1,0.6-0.2l12.4-9c0.5-0.3,0.6-1,0.2-1.5c-0.3-0.5-1-0.6-1.5-0.2l-12.4,9
			c-0.5,0.3-0.6,1-0.2,1.5C220-134.8,220.3-134.7,220.6-134.7z"/>
		<path class="st10" d="M190.6-141.3c-0.6,0.1-1,0.6-1,1.2l0.6,7.2c0,0.6,0.5,1,1.1,1c0,0,0.1,0,0.1,0c0.6-0.1,1-0.6,1-1.2l-0.6-7.2
			C191.7-140.9,191.2-141.4,190.6-141.3z"/>
		<path class="st10" d="M224.1-115.2c-0.6-0.1-1.2,0.2-1.3,0.8l-2.3,9.9c-0.1,0.6,0.2,1.2,0.8,1.3c0.1,0,0.2,0,0.2,0
			c0.5,0,0.9-0.3,1-0.8l2.3-9.9C225.1-114.4,224.7-115,224.1-115.2z"/>
		<path class="st10" d="M34.7-147.4c-0.3-0.5-1-0.6-1.5-0.3c-0.5,0.3-0.6,1-0.3,1.5l7.1,10.1c0.2,0.3,0.5,0.5,0.9,0.5
			c0.2,0,0.4-0.1,0.6-0.2c0.5-0.3,0.6-1,0.3-1.5L34.7-147.4z"/>
		<path class="st2" d="M35.9-175.6c0.1,0,0.3,0.1,0.4,0.1c0.4,0,0.8-0.3,1-0.7l4.2-10.9c0.2-0.6-0.1-1.2-0.6-1.4
			c-0.6-0.2-1.2,0.1-1.4,0.6L35.2-177C35-176.5,35.3-175.9,35.9-175.6z"/>
		<path class="st2" d="M57.1-243c0.1,0,0.2,0.1,0.3,0.1c0.5,0,0.9-0.3,1-0.7l4.4-13.3c0.2-0.6-0.1-1.2-0.7-1.4
			c-0.6-0.2-1.2,0.1-1.4,0.7l-4.4,13.3C56.2-243.8,56.5-243.2,57.1-243z"/>
		<path class="st2" d="M70.3-220.5l8.1,11.6c0.2,0.3,0.5,0.5,0.9,0.5c0.2,0,0.4-0.1,0.6-0.2c0.5-0.3,0.6-1,0.3-1.5l-8.1-11.6
			c-0.3-0.5-1-0.6-1.5-0.3C70.1-221.7,70-221,70.3-220.5z"/>
		<path class="st2" d="M48.8-225.2c-0.5-0.3-1.2-0.1-1.5,0.4l-5.2,9.6c-0.3,0.5-0.1,1.2,0.4,1.5c0.2,0.1,0.3,0.1,0.5,0.1
			c0.4,0,0.8-0.2,0.9-0.6l5.2-9.6C49.5-224.3,49.3-225,48.8-225.2z"/>
		<path class="st2" d="M232.2-244.8c-0.4-0.4-1.1-0.5-1.5,0c-0.4,0.4-0.5,1.1,0,1.5l8.3,8.8c0.2,0.2,0.5,0.3,0.8,0.3
			c0.3,0,0.5-0.1,0.7-0.3c0.4-0.4,0.5-1.1,0-1.5L232.2-244.8z"/>
		<path class="st2" d="M274.7-235.5l-6.3,6.1c-0.4,0.4-0.4,1.1,0,1.5c0.2,0.2,0.5,0.3,0.8,0.3c0.3,0,0.5-0.1,0.8-0.3l6.3-6.1
			c0.4-0.4,0.4-1.1,0-1.5C275.8-235.9,275.1-235.9,274.7-235.5z"/>
		<path class="st2" d="M183.6-231.9c0.2,0.4,0.6,0.6,1,0.6c0.2,0,0.3,0,0.5-0.1c0.5-0.3,0.7-0.9,0.4-1.5l-6.2-11.6
			c-0.3-0.5-0.9-0.7-1.5-0.4c-0.5,0.3-0.7,0.9-0.4,1.5L183.6-231.9z"/>
		<path class="st2" d="M137-167.3c0.2,0.2,0.4,0.2,0.7,0.2c0.3,0,0.6-0.1,0.9-0.4c0.4-0.5,0.3-1.1-0.2-1.5l-12.3-9.6
			c-0.5-0.4-1.1-0.3-1.5,0.2c-0.4,0.5-0.3,1.1,0.2,1.5L137-167.3z"/>
		<path class="st2" d="M136.7-70.8c-0.6-0.2-1.2,0.1-1.4,0.7l-3.7,11.9c-0.2,0.6,0.1,1.2,0.7,1.4c0.1,0,0.2,0,0.3,0
			c0.5,0,0.9-0.3,1-0.8l3.7-11.9C137.6-70,137.2-70.6,136.7-70.8z"/>
		<path class="st2" d="M250.7-51.9c0.1,0.1,0.3,0.1,0.4,0.1c0.4,0,0.8-0.3,1-0.7l5.1-13.1c0.2-0.6-0.1-1.2-0.6-1.4
			c-0.6-0.2-1.2,0.1-1.4,0.6l-5.1,13.1C249.9-52.7,250.1-52.1,250.7-51.9z"/>
		<path class="st2" d="M119.1-9.2l-9.7-1.2c-0.6-0.1-1.1,0.3-1.2,0.9c-0.1,0.6,0.3,1.1,0.9,1.2l9.7,1.2c0,0,0.1,0,0.1,0
			c0.5,0,1-0.4,1.1-0.9C120.1-8.6,119.7-9.1,119.1-9.2z"/>
		<path class="st2" d="M81.2-46.5c-0.5-0.3-1.2-0.1-1.5,0.4l-5.5,10.3c-0.3,0.5-0.1,1.2,0.4,1.5c0.2,0.1,0.3,0.1,0.5,0.1
			c0.4,0,0.8-0.2,1-0.6l5.5-10.3C81.9-45.6,81.7-46.2,81.2-46.5z"/>
		<path class="st2" d="M53.5-94c0.2,0,0.5-0.1,0.7-0.2c0.5-0.4,0.6-1,0.2-1.5l-7.9-10.1c-0.4-0.5-1-0.6-1.5-0.2
			c-0.5,0.4-0.6,1-0.2,1.5l7.9,10.1C52.9-94.1,53.2-94,53.5-94z"/>
		<path class="st11" d="M50.4-65.1l5.9-7.2c0.4-0.5,0.3-1.1-0.2-1.5c-0.5-0.4-1.1-0.3-1.5,0.2l-5.9,7.2c-0.4,0.5-0.3,1.1,0.2,1.5
			c0.2,0.2,0.4,0.2,0.7,0.2C49.9-64.7,50.2-64.8,50.4-65.1z"/>
		<path class="st11" d="M167.9-129.6c0.6-0.1,1-0.7,0.9-1.3l-3-16.3c-0.1-0.6-0.7-1-1.3-0.9c-0.6,0.1-1,0.7-0.9,1.3l3,16.3
			c0.1,0.5,0.5,0.9,1.1,0.9C167.8-129.6,167.8-129.6,167.9-129.6z"/>
		<path class="st11" d="M95.5-167c0.2,0,0.5-0.1,0.7-0.2l6.2-4.9c0.5-0.4,0.5-1,0.2-1.5c-0.4-0.5-1-0.5-1.5-0.2l-6.2,4.9
			c-0.5,0.4-0.5,1-0.2,1.5C94.8-167.2,95.2-167,95.5-167z"/>
		<path class="st11" d="M67.3-181c0.1,0,0.1,0,0.2,0c0.6-0.1,1-0.7,0.9-1.3l-2.9-15c-0.1-0.6-0.7-1-1.3-0.9c-0.6,0.1-1,0.7-0.9,1.3
			l2.9,15C66.3-181.4,66.8-181,67.3-181z"/>
		<path class="st11" d="M212.3-219l-8.3,7.2c-0.4,0.4-0.5,1.1-0.1,1.5c0.2,0.2,0.5,0.4,0.8,0.4c0.3,0,0.5-0.1,0.7-0.3l8.3-7.2
			c0.4-0.4,0.5-1.1,0.1-1.5C213.5-219.3,212.8-219.4,212.3-219z"/>
		<path class="st11" d="M205-112.9c-0.6-0.2-1.2,0.2-1.3,0.8l-3,11.8c-0.1,0.6,0.2,1.2,0.8,1.3c0.1,0,0.2,0,0.3,0
			c0.5,0,0.9-0.3,1-0.8l3-11.8C205.9-112.2,205.6-112.8,205-112.9z"/>
		<path class="st11" d="M283.6-135.6c0.2,0,0.4,0,0.5-0.1l6-3.4c0.5-0.3,0.7-1,0.4-1.5c-0.3-0.5-1-0.7-1.5-0.4l-6,3.4
			c-0.5,0.3-0.7,1-0.4,1.5C282.8-135.8,283.2-135.6,283.6-135.6z"/>
		<path class="st11" d="M244.5-9.8l-10.9,0.6c-0.6,0-1.1,0.5-1,1.1c0,0.6,0.5,1,1.1,1c0,0,0,0,0.1,0l10.9-0.6c0.6,0,1.1-0.5,1-1.1
			C245.6-9.4,245.1-9.9,244.5-9.8z"/>
		<path class="st4" d="M160.1-56.7c-0.5-0.3-1.2-0.1-1.5,0.4l-4.6,8.6c-0.3,0.5-0.1,1.2,0.4,1.5c0.2,0.1,0.3,0.1,0.5,0.1
			c0.4,0,0.8-0.2,1-0.6l4.6-8.6C160.9-55.7,160.7-56.4,160.1-56.7z"/>
		<path class="st4" d="M238.9-17.2c0.5,0,0.9-0.3,1-0.8l2.4-8.1c0.2-0.6-0.2-1.2-0.7-1.3c-0.6-0.2-1.2,0.2-1.3,0.7l-2.4,8.1
			c-0.2,0.6,0.2,1.2,0.7,1.3C238.7-17.2,238.8-17.2,238.9-17.2z"/>
		<path class="st4" d="M241-78c-0.2-0.5-0.9-0.8-1.4-0.5c-0.5,0.2-0.8,0.9-0.5,1.4l5.3,11.6c0.2,0.4,0.6,0.6,1,0.6
			c0.2,0,0.3,0,0.4-0.1c0.5-0.2,0.8-0.9,0.5-1.4L241-78z"/>
		<path class="st4" d="M257.2-13.1c-0.2-0.6-0.8-0.8-1.4-0.6c-0.6,0.2-0.8,0.8-0.6,1.4l3.3,8.8c0.2,0.4,0.6,0.7,1,0.7
			c0.1,0,0.3,0,0.4-0.1c0.6-0.2,0.8-0.8,0.6-1.4L257.2-13.1z"/>
		<path class="st4" d="M237.2-287.1c0.6,0,1.1-0.5,1.1-1.1v-9.8c0-0.6-0.5-1.1-1.1-1.1c-0.6,0-1.1,0.5-1.1,1.1v9.8
			C236.2-287.5,236.6-287.1,237.2-287.1z"/>
		<path class="st4" d="M181.1-269.7c0.1,0,0.2,0,0.3,0c0.5,0,0.9-0.3,1-0.8l3.2-12.6c0.1-0.6-0.2-1.2-0.8-1.3
			c-0.6-0.1-1.2,0.2-1.3,0.8l-3.2,12.6C180.1-270.5,180.5-269.9,181.1-269.7z"/>
		<path class="st4" d="M157.3-246.7c0.3,0,0.6-0.1,0.8-0.4l8.9-9.7c0.4-0.4,0.4-1.1-0.1-1.5c-0.4-0.4-1.1-0.4-1.5,0.1l-8.9,9.7
			c-0.4,0.4-0.4,1.1,0.1,1.5C156.8-246.8,157.1-246.7,157.3-246.7z"/>
		<path class="st4" d="M26.4-190.3l-4.6,5.9c-0.4,0.5-0.3,1.1,0.2,1.5c0.2,0.2,0.4,0.2,0.7,0.2c0.3,0,0.6-0.1,0.9-0.4l4.6-5.9
			c0.4-0.5,0.3-1.1-0.2-1.5C27.5-190.8,26.8-190.8,26.4-190.3z"/>
	</g>
</pattern>
<g id="PATTERN">
	<rect class="st15" width="800" height="800"/>
</g>
<g id="DESIGNED_BY_FREEPIK">
</g>
</svg>
